<svg xmlns="http://www.w3.org/2000/svg" viewBox="0 0 22.197 17">
  <defs>
    <style>
      .cls-1 {
        fill: #5e7984;
      }
    </style>
  </defs>
  <g id="Group_825" data-name="Group 825" transform="translate(-290.1 173.926) rotate(-90)">
    <path id="Path_1030" data-name="Path 1030" class="cls-1" d="M165.476,312.3a1.765,1.765,0,0,1-1.413-.706l-6.76-8.879a1.894,1.894,0,0,1-.2-1.917,1.8,1.8,0,0,1,1.614-1.009h1.917v-8.475a1.166,1.166,0,0,1,1.211-1.211h7.164a1.166,1.166,0,0,1,1.211,1.211v8.475h1.917a1.8,1.8,0,0,1,1.614,1.009,1.894,1.894,0,0,1-.2,1.917l-6.76,8.879A1.28,1.28,0,0,1,165.476,312.3Zm-6.76-11.2a.629.629,0,0,0-.5.3.511.511,0,0,0,.1.5l6.76,8.879a.472.472,0,0,0,.807,0l6.76-8.879c.2-.2.1-.5,0-.5,0-.1-.2-.3-.5-.3h-2.623a.69.69,0,0,1-.706-.706v-8.98h-6.962v8.98a.69.69,0,0,1-.706.706Z" transform="translate(0 0)"/>
  </g>
</svg>
