<svg xmlns="http://www.w3.org/2000/svg" viewBox="0 0 33.171 30.7">
  <defs>
    <style>
      .cls-1 {
        fill: #5e7984;
      }
    </style>
  </defs>
  <g id="Group_581" data-name="Group 581" transform="translate(-260 -132.9)">
    <g id="Group_503" data-name="Group 503" transform="translate(260 132.9)">
      <g id="Group_487" data-name="Group 487" transform="translate(10.621 24.459)">
        <path id="Path_1079" data-name="Path 1079" class="cls-1" d="M297.019,193.352H285.627a.23.23,0,0,1-.209-.126.277.277,0,0,1-.042-.251l.544-1.508a.23.23,0,0,1,.251-.168h10.3a.283.283,0,0,1,.251.168l.544,1.466c.042.042.042.084.042.168A.314.314,0,0,1,297.019,193.352ZM286,192.808h10.638l-.335-.963h-9.926Z" transform="translate(-285.359 -191.3)"/>
      </g>
      <g id="Group_488" data-name="Group 488" transform="translate(20.296 21.402)">
        <path id="Path_1080" data-name="Path 1080" class="cls-1" d="M313.5,193.3H311.91a.283.283,0,0,1-.251-.168l-3.183-8.753a.277.277,0,0,1,.042-.251.23.23,0,0,1,.209-.126h1.592a.283.283,0,0,1,.251.168l3.141,8.753a.277.277,0,0,1-.042.251C313.711,193.256,313.628,193.3,313.5,193.3Zm-1.382-.544h1.005l-2.932-8.209h-1.005Z" transform="translate(-308.459 -184)"/>
      </g>
      <g id="Group_489" data-name="Group 489" transform="translate(7.522 21.402)">
        <path id="Path_1081" data-name="Path 1081" class="cls-1" d="M279.819,193.3h-1.592a.23.23,0,0,1-.209-.126.277.277,0,0,1-.042-.251l3.141-8.753a.23.23,0,0,1,.251-.168h1.592a.23.23,0,0,1,.209.126.277.277,0,0,1,.042.251l-3.183,8.753C280.028,193.214,279.9,193.3,279.819,193.3Zm-1.215-.544h1.005l2.974-8.209h-1.005Z" transform="translate(-277.959 -184)"/>
      </g>
      <g id="Group_490" data-name="Group 490" transform="translate(1.047 3.057)">
        <path id="Path_1082" data-name="Path 1082" class="cls-1" d="M290.98,159.089H265.055a2.488,2.488,0,0,1-2.555-2.555V140.493a.286.286,0,0,1,.293-.293h30.491a.286.286,0,0,1,.293.293v16.041A2.548,2.548,0,0,1,290.98,159.089Zm-27.936-18.345v15.748a1.985,1.985,0,0,0,2.01,2.01H290.98a1.985,1.985,0,0,0,2.01-2.01V140.744Z" transform="translate(-262.5 -140.2)"/>
      </g>
      <g id="Group_491" data-name="Group 491" transform="translate(0 1.508)">
        <path id="Path_1083" data-name="Path 1083" class="cls-1" d="M292.878,138.594H260.293A.286.286,0,0,1,260,138.3v-1.508a.286.286,0,0,1,.293-.293h32.585a.286.286,0,0,1,.293.293V138.3C293.129,138.51,293.045,138.594,292.878,138.594Zm-32.333-.544h32.04v-.963h-32.04Z" transform="translate(-260 -136.5)"/>
      </g>
      <g id="Group_492" data-name="Group 492" transform="translate(15.538)">
        <path id="Path_1084" data-name="Path 1084" class="cls-1" d="M298.9,134.994h-1.508a.286.286,0,0,1-.293-.293v-.754a1.047,1.047,0,1,1,2.094,0v.754A.353.353,0,0,1,298.9,134.994Zm-1.256-.544h.963v-.5a.462.462,0,0,0-.5-.5.444.444,0,0,0-.5.5v.5Z" transform="translate(-297.1 -132.9)"/>
      </g>
      <g id="Group_493" data-name="Group 493" transform="translate(24.124 3.644)">
        <path id="Path_1085" data-name="Path 1085" class="cls-1" d="M325.223,157.39h-.544a.805.805,0,0,1-.8-.838v-.88a6.373,6.373,0,0,1-1.675-.67l-.586.586a.827.827,0,0,1-.586.251h0a.827.827,0,0,1-.586-.251l-1.089-1.089a.81.81,0,0,1,0-1.173l.586-.544a6.2,6.2,0,0,1-.712-1.717h-.8a.84.84,0,0,1-.838-.838v-1.55a.859.859,0,0,1,.838-.838h.754a7.473,7.473,0,0,1,.712-1.675l-.544-.544a.847.847,0,0,1,0-1.173l1.089-1.089a.827.827,0,0,1,.586-.251h0a.827.827,0,0,1,.586.251l.586.586a6.252,6.252,0,0,1,1.675-.628v-.88a.859.859,0,0,1,.838-.838h.544c.168,0,.251.126.251.293s-.126.251-.293.251h-.544a.708.708,0,0,0-.209.084.32.32,0,0,0-.084.209v1.131a.235.235,0,0,1-.209.251,6.043,6.043,0,0,0-1.885.712.253.253,0,0,1-.335-.042l-.754-.754a.32.32,0,0,0-.209-.084h0c-.084,0-.126.042-.209.084l-1.089,1.089a.235.235,0,0,0,0,.377l.712.712a.259.259,0,0,1,.042.335,6.121,6.121,0,0,0-.838,1.927.265.265,0,0,1-.251.209h-1.005a.286.286,0,0,0-.293.293v1.55a.286.286,0,0,0,.293.293h1.005a.235.235,0,0,1,.251.209,5.53,5.53,0,0,0,.8,1.927.254.254,0,0,1-.042.335l-.712.712a.32.32,0,0,0-.084.209c0,.084.042.126.084.209l1.089,1.089a.32.32,0,0,0,.209.084h0c.084,0,.126-.042.209-.084l.754-.754a.316.316,0,0,1,.335-.042,5.243,5.243,0,0,0,1.885.754.265.265,0,0,1,.209.251v1.089a.286.286,0,0,0,.293.293h.544c.168,0,.251.126.251.293A.228.228,0,0,1,325.223,157.39Z" transform="translate(-317.6 -141.6)"/>
      </g>
      <g id="Group_494" data-name="Group 494" transform="translate(28.689 8.251)">
        <path id="Path_1086" data-name="Path 1086" class="cls-1" d="M331.6,159.259h0a3.337,3.337,0,0,1,.042-6.659c.168,0,.293.084.293.251s-.084.293-.251.293a2.791,2.791,0,0,0-.042,5.57c.168,0,.251.126.251.293A.359.359,0,0,1,331.6,159.259Z" transform="translate(-328.498 -152.6)"/>
      </g>
      <g id="Group_495" data-name="Group 495" transform="translate(2.932 7.623)">
        <path id="Path_1087" data-name="Path 1087" class="cls-1" d="M272.319,161.738a5.319,5.319,0,0,1,0-10.638.286.286,0,0,1,.293.293v4.775h4.775a.286.286,0,0,1,.293.293A5.382,5.382,0,0,1,272.319,161.738Zm-.251-10.136a4.778,4.778,0,1,0,5.026,5.026h-4.775a.286.286,0,0,1-.293-.293V151.6Z" transform="translate(-267 -151.1)"/>
      </g>
      <g id="Group_496" data-name="Group 496" transform="translate(8.795 6.701)">
        <path id="Path_1088" data-name="Path 1088" class="cls-1" d="M286.361,154.554h-5.068a.286.286,0,0,1-.293-.293v-5.068a.286.286,0,0,1,.293-.293,5.327,5.327,0,0,1,5.319,5.319A.254.254,0,0,1,286.361,154.554Zm-4.775-.544h4.523a4.831,4.831,0,0,0-4.523-4.523Z" transform="translate(-281 -148.9)"/>
      </g>
      <g id="Group_497" data-name="Group 497" transform="translate(7.79 17.674)">
        <path id="Path_1089" data-name="Path 1089" class="cls-1" d="M293.133,175.686h-14.24a.293.293,0,0,1,0-.586h14.24a.293.293,0,1,1,0,.586Z" transform="translate(-278.6 -175.1)"/>
      </g>
      <g id="Group_498" data-name="Group 498" transform="translate(12.062 15.538)">
        <path id="Path_1090" data-name="Path 1090" class="cls-1" d="M299.061,170.586h-9.968a.293.293,0,1,1,0-.586h9.968a.293.293,0,0,1,0,.586Z" transform="translate(-288.8 -170)"/>
      </g>
      <g id="Group_499" data-name="Group 499" transform="translate(13.025 13.696)">
        <path id="Path_1091" data-name="Path 1091" class="cls-1" d="M300.4,166.186h-9a.293.293,0,0,1,0-.586h9a.293.293,0,1,1,0,.586Z" transform="translate(-291.1 -165.6)"/>
      </g>
      <g id="Group_500" data-name="Group 500" transform="translate(13.025 11.769)">
        <path id="Path_1092" data-name="Path 1092" class="cls-1" d="M300.4,161.586h-9a.293.293,0,0,1,0-.586h9a.293.293,0,1,1,0,.586Z" transform="translate(-291.1 -161)"/>
      </g>
      <g id="Group_501" data-name="Group 501" transform="translate(13.486 9.884)">
        <path id="Path_1093" data-name="Path 1093" class="cls-1" d="M301.037,157.086h-8.544a.293.293,0,0,1,0-.586h8.544a.286.286,0,0,1,.293.293A.265.265,0,0,1,301.037,157.086Z" transform="translate(-292.2 -156.5)"/>
      </g>
      <g id="Group_502" data-name="Group 502" transform="translate(12.062 7.958)">
        <path id="Path_1094" data-name="Path 1094" class="cls-1" d="M299.061,152.486h-9.968a.293.293,0,1,1,0-.586h9.968a.293.293,0,1,1,0,.586Z" transform="translate(-288.8 -151.9)"/>
      </g>
    </g>
  </g>
</svg>
