<svg xmlns="http://www.w3.org/2000/svg" viewBox="0 0 28.626 19.9">
  <defs>
    <style>
      .cls-1 {
        fill: #5e7984;
      }
    </style>
  </defs>
  <g id="XMLID_1_" transform="translate(-1278.2 -1376.9)">
    <path id="XMLID_60_" class="cls-1" d="M1306.4,1385h-8.7v-7.6a.472.472,0,0,0-.5-.5h-9.3a.472.472,0,0,0-.5.5v3.3h-8.7a.472.472,0,0,0-.5.5v15.1a.472.472,0,0,0,.5.5h27.6a.472.472,0,0,0,.5-.5v-10.9C1306.9,1385.2,1306.7,1385,1306.4,1385Zm-5.4,6.7h1.7v4.3H1301Zm4.9,4.1h-2.7v-4.4a.265.265,0,0,0-.3-.3h-2.2a.265.265,0,0,0-.3.3v4.4h-2.7v-9.9h8.2Zm-26.6-14.1h8.2v14.2h-2.7v-4.4a.265.265,0,0,0-.3-.3h-2.2a.265.265,0,0,0-.3.3v4.4h-2.7Zm3.3,10h1.7v4.3h-1.7Zm14.2-6.2v10.4h-2.9v-4.4a.265.265,0,0,0-.3-.3h-2.2a.265.265,0,0,0-.3.3v4.4h-2.6v-18h8.3v7.6Zm-5.1,10.5v-4.3h1.7v4.3Z"/>
    <path id="XMLID_57_" class="cls-1" d="M1292.1,1379.8h-2.2a.265.265,0,0,0-.3.3v2.2a.265.265,0,0,0,.3.3h2.2a.265.265,0,0,0,.3-.3v-2.2A.319.319,0,0,0,1292.1,1379.8Zm-.3,2.2h-1.6v-1.6h1.6Z"/>
    <path id="XMLID_54_" class="cls-1" d="M1295.5,1379.8h-2.2a.265.265,0,0,0-.3.3v2.2a.265.265,0,0,0,.3.3h2.2a.265.265,0,0,0,.3-.3v-2.2A.319.319,0,0,0,1295.5,1379.8Zm-.3,2.2h-1.6v-1.6h1.6Z"/>
    <path id="XMLID_51_" class="cls-1" d="M1292.1,1383.4h-2.2a.265.265,0,0,0-.3.3v2.2a.265.265,0,0,0,.3.3h2.2a.265.265,0,0,0,.3-.3v-2.2A.319.319,0,0,0,1292.1,1383.4Zm-.3,2.2h-1.6V1384h1.6Z"/>
    <path id="XMLID_26_" class="cls-1" d="M1295.5,1383.4h-2.2a.265.265,0,0,0-.3.3v2.2a.265.265,0,0,0,.3.3h2.2a.265.265,0,0,0,.3-.3v-2.2A.319.319,0,0,0,1295.5,1383.4Zm-.3,2.2h-1.6V1384h1.6Z"/>
    <path id="XMLID_23_" class="cls-1" d="M1292.1,1387h-2.2a.265.265,0,0,0-.3.3v2.2a.265.265,0,0,0,.3.3h2.2a.265.265,0,0,0,.3-.3v-2.2A.451.451,0,0,0,1292.1,1387Zm-.3,2.3h-1.6v-1.6h1.6Z"/>
    <path id="XMLID_20_" class="cls-1" d="M1295.5,1387h-2.2a.265.265,0,0,0-.3.3v2.2a.265.265,0,0,0,.3.3h2.2a.265.265,0,0,0,.3-.3v-2.2A.451.451,0,0,0,1295.5,1387Zm-.3,2.3h-1.6v-1.6h1.6Z"/>
    <path id="XMLID_17_" class="cls-1" d="M1280.6,1386.2h2.2a.265.265,0,0,0,.3-.3v-2.2a.265.265,0,0,0-.3-.3h-2.2a.265.265,0,0,0-.3.3v2.2A.265.265,0,0,0,1280.6,1386.2Zm.3-2.2h1.6v1.6h-1.6Z"/>
    <path id="XMLID_14_" class="cls-1" d="M1284,1386.2h2.2a.265.265,0,0,0,.3-.3v-2.2a.265.265,0,0,0-.3-.3H1284a.265.265,0,0,0-.3.3v2.2A.265.265,0,0,0,1284,1386.2Zm.3-2.2h1.6v1.6h-1.6Z"/>
    <path id="XMLID_11_" class="cls-1" d="M1282.8,1389.8a.265.265,0,0,0,.3-.3v-2.2a.265.265,0,0,0-.3-.3h-2.2a.265.265,0,0,0-.3.3v2.2a.265.265,0,0,0,.3.3Zm-1.9-2.2h1.6v1.6h-1.6Z"/>
    <path id="XMLID_8_" class="cls-1" d="M1284,1389.8h2.2a.265.265,0,0,0,.3-.3v-2.2a.265.265,0,0,0-.3-.3H1284a.265.265,0,0,0-.3.3v2.2A.265.265,0,0,0,1284,1389.8Zm.3-2.2h1.6v1.6h-1.6Z"/>
    <path id="XMLID_5_" class="cls-1" d="M1299,1389.8h2.2a.265.265,0,0,0,.3-.3v-2.2a.265.265,0,0,0-.3-.3H1299a.265.265,0,0,0-.3.3v2.2A.319.319,0,0,0,1299,1389.8Zm.3-2.2h1.6v1.6h-1.6Z"/>
    <path id="XMLID_2_" class="cls-1" d="M1302.4,1389.8h2.2a.265.265,0,0,0,.3-.3v-2.2a.265.265,0,0,0-.3-.3h-2.2a.265.265,0,0,0-.3.3v2.2A.319.319,0,0,0,1302.4,1389.8Zm.3-2.2h1.6v1.6h-1.6Z"/>
  </g>
</svg>
