<svg id="Group_580" data-name="Group 580" xmlns="http://www.w3.org/2000/svg" viewBox="0 0 26.932 26.932">
  <defs>
    <style>
      .cls-1 {
        fill: none;
        stroke: #5e7984;
        stroke-miterlimit: 10;
      }

      .cls-2 {
        fill: #5e7984;
      }

      .cls-3 {
        fill: #fff;
      }
    </style>
  </defs>
  <g id="Group_572" data-name="Group 572" transform="translate(0.5 3.973)">
    <path id="Path_1162" data-name="Path 1162" class="cls-1" d="M11.757,29.659a11.229,11.229,0,1,1,7.449-19.644c.11.055.11.221,0,.331-.055.11-.221.11-.331,0a10.6,10.6,0,0,0-7.118-2.7,10.771,10.771,0,1,0,8.167,3.7c-.055,0-.055-.055-.11-.055a.352.352,0,0,1,0-.331h0a.246.246,0,0,1,.276,0,11.26,11.26,0,0,1-8.332,18.706Z" transform="translate(-0.5 -7.2)"/>
  </g>
  <g id="Group_573" data-name="Group 573" transform="translate(20.467)">
    <path id="Path_1163" data-name="Path 1163" class="cls-2" d="M39.838,6.4h0a1.215,1.215,0,0,1-.441-.055l-1.987-.5a.176.176,0,0,1-.166-.166l-.5-1.987a1.479,1.479,0,0,1,.386-1.49L39.342,0h.276q.083,0,.166.166l.607,2.594,2.594.662q.083,0,.166.166a.332.332,0,0,1-.055.221L40.887,6.015A1.742,1.742,0,0,1,39.838,6.4Zm-2.152-.938,1.821.441a.7.7,0,0,0,.331.055h0a1.089,1.089,0,0,0,.773-.331L42.542,3.7l-2.373-.552A.176.176,0,0,1,40,2.98L39.4.607,37.465,2.538a1.116,1.116,0,0,0-.276,1.1Z" transform="translate(-36.684)"/>
  </g>
  <g id="Group_574" data-name="Group 574" transform="translate(2.542 5.96)">
    <path id="Path_1164" data-name="Path 1164" class="cls-1" d="M13.415,29.23a9.215,9.215,0,1,1,0-18.43,9.047,9.047,0,0,1,5.96,2.207c.11.055.11.221,0,.331-.055.11-.221.11-.331,0a8.619,8.619,0,0,0-5.684-2.1,8.774,8.774,0,1,0,8.829,8.774,8.619,8.619,0,0,0-2.1-5.684.352.352,0,0,1,0-.331.352.352,0,0,1,.331,0,9.047,9.047,0,0,1,2.207,5.96A9.315,9.315,0,0,1,13.415,29.23Z" transform="translate(-4.2 -10.8)"/>
  </g>
  <g id="Group_575" data-name="Group 575" transform="translate(4.804 8.222)">
    <path id="Path_1165" data-name="Path 1165" class="cls-1" d="M15.253,28.806a6.953,6.953,0,0,1,0-13.906,7.044,7.044,0,0,1,4.47,1.6c.11.055.11.221,0,.331-.055.11-.221.11-.331,0a6.4,6.4,0,0,0-4.194-1.49,6.511,6.511,0,1,0,6.511,6.511,6.706,6.706,0,0,0-1.49-4.194.234.234,0,1,1,.331-.331,7.018,7.018,0,0,1-5.3,11.478Z" transform="translate(-8.3 -14.9)"/>
  </g>
  <g id="Group_576" data-name="Group 576" transform="translate(7.067 10.484)">
    <path id="Path_1166" data-name="Path 1166" class="cls-1" d="M17.09,28.381a4.69,4.69,0,0,1,0-9.381,4.426,4.426,0,0,1,2.869.993c.11.055.11.221.055.331s-.221.11-.331.055A4,4,0,0,0,17.09,19.5a4.249,4.249,0,1,0,4.249,4.249A4.2,4.2,0,0,0,20.4,21.1a.237.237,0,1,1,.386-.276,4.742,4.742,0,0,1,1.048,2.925A4.835,4.835,0,0,1,17.09,28.381Z" transform="translate(-12.4 -19)"/>
  </g>
  <path id="Path_1167" data-name="Path 1167" class="cls-3" d="M31.664,10.238,21.455,18.846a.054.054,0,0,1-.055-.055L30.284,9.3l.276.386,1.1.552Z" transform="translate(-9.367 -4.168)"/>
  <g id="Group_578" data-name="Group 578" transform="translate(11.536 0.69)">
    <g id="Group_577" data-name="Group 577">
      <path id="Path_1168" data-name="Path 1168" class="cls-2" d="M20.721,15.956a.2.2,0,0,1-.166-.055c-.055-.055-.055-.11-.055-.221.221-.662,2.759-3.752,9.381-10.374.055-.055.11-.055.221-.055q.083,0,.166.166l.166.662.662.166q.083,0,.166.166a.332.332,0,0,1-.055.221c-5.573,5.463-9.657,9.16-10.484,9.326Zm9.215-10.1a111.611,111.611,0,0,0-8.553,9.215A119,119,0,0,0,30.6,6.52l-.441-.11a.176.176,0,0,1-.166-.166Zm3.807-1.931h0l-.828-.221a.176.176,0,0,1-.166-.166l-.166-.773a.332.332,0,0,1,.055-.221L33.688,1.5a.935.935,0,0,1,1.269,0,.934.934,0,0,1,0,1.269l-1.1,1.1A.193.193,0,0,1,33.743,3.926Zm-.607-.607.5.11.993-.993a.5.5,0,0,0,0-.662.5.5,0,0,0-.607.055l-.993.993Z" transform="translate(-20.5 -1.25)"/>
    </g>
  </g>
  <g id="Group_579" data-name="Group 579" transform="translate(9.605 13.023)">
    <path id="Path_1169" data-name="Path 1169" class="cls-2" d="M19.152,27.9a2.152,2.152,0,1,1,0-4.3,2.624,2.624,0,0,1,1.269.386c.055.055.055.11.11.166a.2.2,0,0,1-.055.166c-.276.331-.441.552-.607.773.221-.166.441-.331.773-.607a.2.2,0,0,1,.166-.055c.055,0,.11.055.166.11a2.037,2.037,0,0,1,.386,1.269A2.231,2.231,0,0,1,19.152,27.9Zm0-3.863a1.711,1.711,0,1,0,1.711,1.711,1.763,1.763,0,0,0-.166-.773c-1.159.938-1.38.993-1.49.993a.332.332,0,0,1-.221-.055c-.055-.055-.055-.11-.055-.221a6.191,6.191,0,0,1,.993-1.49A1.762,1.762,0,0,0,19.152,24.041Z" transform="translate(-17 -23.6)"/>
  </g>
</svg>
