<svg id="Design_2_" xmlns="http://www.w3.org/2000/svg" xmlns:xlink="http://www.w3.org/1999/xlink" viewBox="0 0 49.626 25.897">
  <defs>
    <style>
      .cls-1 {
        opacity: 0.4;
      }

      .cls-2, .cls-24, .cls-30 {
        fill: #fff;
      }

      .cls-10, .cls-11, .cls-12, .cls-13, .cls-14, .cls-15, .cls-16, .cls-17, .cls-18, .cls-19, .cls-2, .cls-20, .cls-21, .cls-22, .cls-23, .cls-3, .cls-30, .cls-31, .cls-32, .cls-33, .cls-34, .cls-35, .cls-36, .cls-37, .cls-38, .cls-39, .cls-4, .cls-40, .cls-41, .cls-42, .cls-43, .cls-45, .cls-46, .cls-47, .cls-48, .cls-49, .cls-5, .cls-50, .cls-6, .cls-7, .cls-8, .cls-9 {
        fill-rule: evenodd;
      }

      .cls-2 {
        opacity: 0;
      }

      .cls-3, .cls-31 {
        fill: #f3f3f3;
      }

      .cls-3 {
        opacity: 0.048;
      }

      .cls-32, .cls-4 {
        fill: #e7e7e7;
      }

      .cls-4 {
        opacity: 0.095;
      }

      .cls-33, .cls-5 {
        fill: #dbdbdb;
      }

      .cls-5 {
        opacity: 0.143;
      }

      .cls-34, .cls-6 {
        fill: #cecece;
      }

      .cls-6 {
        opacity: 0.191;
      }

      .cls-35, .cls-7 {
        fill: #c2c2c2;
      }

      .cls-7 {
        opacity: 0.238;
      }

      .cls-36, .cls-8 {
        fill: #b6b6b6;
      }

      .cls-8 {
        opacity: 0.286;
      }

      .cls-37, .cls-9 {
        fill: #aaa;
      }

      .cls-9 {
        opacity: 0.333;
      }

      .cls-10, .cls-38 {
        fill: #9e9e9e;
      }

      .cls-10 {
        opacity: 0.381;
      }

      .cls-11, .cls-39 {
        fill: #929292;
      }

      .cls-11 {
        opacity: 0.429;
      }

      .cls-12, .cls-40 {
        fill: #868686;
      }

      .cls-12 {
        opacity: 0.476;
      }

      .cls-13, .cls-41 {
        fill: #797979;
      }

      .cls-13 {
        opacity: 0.524;
      }

      .cls-14, .cls-42 {
        fill: #6d6d6d;
      }

      .cls-14 {
        opacity: 0.571;
      }

      .cls-15, .cls-43 {
        fill: #616161;
      }

      .cls-15 {
        opacity: 0.619;
      }

      .cls-16, .cls-44 {
        fill: #555;
      }

      .cls-16 {
        opacity: 0.667;
      }

      .cls-17, .cls-45 {
        fill: #494949;
      }

      .cls-17 {
        opacity: 0.714;
      }

      .cls-18, .cls-46 {
        fill: #3d3d3d;
      }

      .cls-18 {
        opacity: 0.762;
      }

      .cls-19, .cls-47 {
        fill: #313131;
      }

      .cls-19 {
        opacity: 0.809;
      }

      .cls-20, .cls-48 {
        fill: #242424;
      }

      .cls-20 {
        opacity: 0.857;
      }

      .cls-21, .cls-49 {
        fill: #181818;
      }

      .cls-21 {
        opacity: 0.905;
      }

      .cls-22, .cls-50 {
        fill: #0c0c0c;
      }

      .cls-22 {
        opacity: 0.952;
      }

      .cls-25 {
        fill: none;
        stroke: #ccc;
        stroke-miterlimit: 10;
        stroke-width: 0.693px;
      }

      .cls-26 {
        fill: #e8f8fc;
      }

      .cls-27 {
        fill: #a0b4be;
      }

      .cls-28, .cls-29 {
        opacity: 0.3;
      }

      .cls-28 {
        fill: url(#linear-gradient);
      }

      .cls-29 {
        fill: url(#linear-gradient-2);
      }

      .cls-30 {
        opacity: 0.04;
      }

      .cls-31 {
        opacity: 0.086;
      }

      .cls-32 {
        opacity: 0.131;
      }

      .cls-33 {
        opacity: 0.177;
      }

      .cls-34 {
        opacity: 0.223;
      }

      .cls-35 {
        opacity: 0.269;
      }

      .cls-36 {
        opacity: 0.314;
      }

      .cls-37 {
        opacity: 0.36;
      }

      .cls-38 {
        opacity: 0.406;
      }

      .cls-39 {
        opacity: 0.451;
      }

      .cls-40 {
        opacity: 0.497;
      }

      .cls-41 {
        opacity: 0.543;
      }

      .cls-42 {
        opacity: 0.589;
      }

      .cls-43 {
        opacity: 0.634;
      }

      .cls-44 {
        opacity: 0.68;
      }

      .cls-45 {
        opacity: 0.726;
      }

      .cls-46 {
        opacity: 0.771;
      }

      .cls-47 {
        opacity: 0.817;
      }

      .cls-48 {
        opacity: 0.863;
      }

      .cls-49 {
        opacity: 0.909;
      }

      .cls-50 {
        opacity: 0.954;
      }

      .cls-51 {
        fill: #d5001c;
      }
    </style>
    <linearGradient id="linear-gradient" x1="2.091" y1="0.5" x2="-0.289" y2="0.5" gradientUnits="objectBoundingBox">
      <stop offset="0"/>
      <stop offset="1" stop-opacity="0.102"/>
    </linearGradient>
    <linearGradient id="linear-gradient-2" x1="1.672" y1="0.612" x2="-0.002" y2="0.423" xlink:href="#linear-gradient"/>
  </defs>
  <g id="Group_57" data-name="Group 57" class="cls-1" transform="translate(0 14.826)">
    <path id="Path_140" data-name="Path 140" class="cls-2" d="M49.626,158.735c0,3.058-11.11,5.535-24.813,5.535S0,161.794,0,158.735,11.11,153.2,24.813,153.2,49.626,155.677,49.626,158.735Z" transform="translate(0 -153.2)"/>
    <path id="Path_141" data-name="Path 141" class="cls-3" d="M54.532,160.332c0,2.942-10.868,5.332-24.271,5.332S6,163.274,6,160.332,16.858,155,30.261,155,54.532,157.381,54.532,160.332Z" transform="translate(-5.419 -154.826)"/>
    <path id="Path_142" data-name="Path 142" class="cls-4" d="M59.339,161.829c0,2.835-10.616,5.129-23.719,5.129S11.9,164.665,11.9,161.829,22.516,156.7,35.619,156.7,59.339,159,59.339,161.829Z" transform="translate(-10.748 -156.361)"/>
    <path id="Path_143" data-name="Path 143" class="cls-5" d="M64.236,163.426c0,2.719-10.374,4.926-23.168,4.926S17.9,166.145,17.9,163.426,28.274,158.5,41.068,158.5,64.236,160.706,64.236,163.426Z" transform="translate(-16.168 -157.987)"/>
    <path id="Path_144" data-name="Path 144" class="cls-6" d="M69.132,165.023c0,2.613-10.123,4.723-22.616,4.723S23.9,167.626,23.9,165.023,34.023,160.3,46.516,160.3,69.132,162.41,69.132,165.023Z" transform="translate(-21.587 -159.613)"/>
    <path id="Path_145" data-name="Path 145" class="cls-7" d="M73.849,166.519c0,2.5-9.881,4.519-22.074,4.519S29.7,169.016,29.7,166.519,39.581,162,51.774,162,73.849,164.023,73.849,166.519Z" transform="translate(-26.826 -161.148)"/>
    <path id="Path_146" data-name="Path 146" class="cls-8" d="M78.845,168.116c0,2.381-9.639,4.316-21.523,4.316S35.8,170.5,35.8,168.116s9.639-4.316,21.523-4.316S78.845,165.735,78.845,168.116Z" transform="translate(-32.335 -162.774)"/>
    <path id="Path_147" data-name="Path 147" class="cls-9" d="M83.742,169.713c0,2.274-9.387,4.113-20.971,4.113S41.8,171.987,41.8,169.713s9.387-4.113,20.971-4.113S83.742,167.439,83.742,169.713Z" transform="translate(-37.755 -164.4)"/>
    <path id="Path_148" data-name="Path 148" class="cls-10" d="M88.458,171.309c0,2.158-9.145,3.91-20.429,3.91S47.6,173.467,47.6,171.309s9.145-3.91,20.429-3.91S88.458,169.142,88.458,171.309Z" transform="translate(-42.994 -166.025)"/>
    <path id="Path_149" data-name="Path 149" class="cls-11" d="M93.355,172.716c0,2.052-8.9,3.716-19.877,3.716S53.6,174.768,53.6,172.716,62.5,169,73.477,169,93.355,170.674,93.355,172.716Z" transform="translate(-48.413 -167.471)"/>
    <path id="Path_150" data-name="Path 150" class="cls-12" d="M98.352,174.313c0,1.936-8.652,3.513-19.326,3.513S59.7,176.258,59.7,174.313s8.652-3.513,19.326-3.513S98.352,172.377,98.352,174.313Z" transform="translate(-53.923 -169.097)"/>
    <path id="Path_151" data-name="Path 151" class="cls-13" d="M103.068,175.91c0,1.829-8.41,3.31-18.784,3.31S65.5,177.739,65.5,175.91s8.41-3.31,18.784-3.31S103.068,174.081,103.068,175.91Z" transform="translate(-59.161 -170.723)"/>
    <path id="Path_152" data-name="Path 152" class="cls-14" d="M107.965,177.406c0,1.713-8.158,3.106-18.232,3.106S71.5,179.119,71.5,177.406s8.158-3.106,18.232-3.106S107.965,175.693,107.965,177.406Z" transform="translate(-64.581 -172.258)"/>
    <path id="Path_153" data-name="Path 153" class="cls-15" d="M112.861,179c0,1.606-7.916,2.9-17.681,2.9S77.5,180.61,77.5,179s7.916-2.9,17.681-2.9S112.861,177.406,112.861,179Z" transform="translate(-70 -173.884)"/>
    <path id="Path_154" data-name="Path 154" class="cls-16" d="M117.758,180.6c0,1.49-7.674,2.7-17.129,2.7S83.5,182.09,83.5,180.6s7.674-2.7,17.129-2.7S117.758,179.11,117.758,180.6Z" transform="translate(-75.419 -175.51)"/>
    <path id="Path_155" data-name="Path 155" class="cls-17" d="M122.574,182.2c0,1.384-7.423,2.5-16.587,2.5S89.4,183.57,89.4,182.2s7.423-2.5,16.587-2.5S122.574,180.812,122.574,182.2Z" transform="translate(-80.748 -177.135)"/>
    <path id="Path_156" data-name="Path 156" class="cls-18" d="M127.471,183.694c0,1.268-7.181,2.294-16.036,2.294S95.4,184.961,95.4,183.694s7.181-2.294,16.036-2.294S127.471,182.426,127.471,183.694Z" transform="translate(-86.168 -178.671)"/>
    <path id="Path_157" data-name="Path 157" class="cls-19" d="M132.368,185.29c0,1.161-6.929,2.09-15.484,2.09s-15.484-.939-15.484-2.09,6.929-2.09,15.484-2.09S132.368,184.139,132.368,185.29Z" transform="translate(-91.587 -180.297)"/>
    <path id="Path_158" data-name="Path 158" class="cls-20" d="M137.084,186.8c0,1.045-6.687,1.9-14.942,1.9s-14.942-.852-14.942-1.9,6.687-1.9,14.942-1.9S137.084,185.752,137.084,186.8Z" transform="translate(-96.826 -181.832)"/>
    <path id="Path_159" data-name="Path 159" class="cls-21" d="M141.981,188.394c0,.929-6.445,1.694-14.39,1.694s-14.39-.755-14.39-1.694,6.445-1.694,14.39-1.694S141.981,187.455,141.981,188.394Z" transform="translate(-102.245 -183.458)"/>
    <path id="Path_160" data-name="Path 160" class="cls-22" d="M146.977,189.89c0,.823-6.194,1.49-13.839,1.49s-13.839-.668-13.839-1.49,6.194-1.49,13.839-1.49S146.977,189.068,146.977,189.89Z" transform="translate(-107.755 -184.994)"/>
    <path id="Path_161" data-name="Path 161" class="cls-23" d="M151.694,191.487c0,.706-5.952,1.287-13.3,1.287s-13.3-.571-13.3-1.287,5.952-1.287,13.3-1.287S151.694,190.781,151.694,191.487Z" transform="translate(-112.994 -186.619)"/>
  </g>
  <path id="Path_162" data-name="Path 162" class="cls-24" d="M47.2,41.252,38.339,40.1l-8.052,1.181L21.655,40.1,13.4,41.387,5,58.884l12.987-2.952,11.748,2.574,10.481-2.594,13.055,3Z" transform="translate(-4.516 -36.219)"/>
  <path id="Path_163" data-name="Path 163" class="cls-25" d="M5,206.471l12.987-2.952,11.748,2.574L40.216,203.5l13.055,3" transform="translate(-4.516 -183.806)"/>
  <g id="Group_58" data-name="Group 58" transform="translate(1.094 4.219)">
    <path id="Path_164" data-name="Path 164" class="cls-26" d="M11.3,61.571l12.377-2.816L27.345,43.6l-8.023,1.248Z" transform="translate(-11.3 -43.6)"/>
    <path id="Path_165" data-name="Path 165" class="cls-26" d="M139.2,58.755l11.748,2.565.561-16.539L142.868,43.6Z" transform="translate(-126.823 -43.6)"/>
    <path id="Path_166" data-name="Path 166" class="cls-26" d="M260.6,61.319l10.481-2.594L269.2,43.6l-8.042,1.181Z" transform="translate(-236.474 -43.6)"/>
    <path id="Path_167" data-name="Path 167" class="cls-26" d="M351.377,58.726l12.542,2.884-5.806-16.9L349.5,43.6Z" transform="translate(-316.771 -43.6)"/>
    <path id="Path_168" data-name="Path 168" class="cls-27" d="M114.281,66.684h0a1.4,1.4,0,0,1,.223.068.362.362,0,0,0,.174.048h0a.181.181,0,0,0,.135-.048.194.194,0,0,0,.039-.077.14.14,0,0,0-.019-.068.1.1,0,0,0-.058-.048h0v-.01c0-.01.01-.029.058-.058a.946.946,0,0,1,.31-.135,1.81,1.81,0,0,1,.261-.019.893.893,0,0,1,.184.01h.039a.348.348,0,0,0,.174-.068.654.654,0,0,0,.116-.106c.01-.01.01-.019.01-.039s-.019-.048-.048-.068a.283.283,0,0,0-.087-.019.141.141,0,0,0-.116.048.292.292,0,0,1-.145.029.809.809,0,0,1-.116-.01h-.039a1.609,1.609,0,0,0-.252.039,1.525,1.525,0,0,1-.223.029.18.18,0,0,0-.126.068.348.348,0,0,1-.116.077c-.106.048-.261.116-.31.145a.207.207,0,0,0-.106.135c-.01.039,0,.068.039.077m-13.539-.561c.048,0,.126-.019.155-.019h0a.036.036,0,0,0,.01.029.146.146,0,0,0,.077.039,1.111,1.111,0,0,0,.135.019h0a.074.074,0,0,0,.048-.019.058.058,0,0,0,.01-.039.238.238,0,0,0-.039-.106c-.019-.019-.019-.039-.048-.048a.292.292,0,0,0-.087-.029.413.413,0,0,0-.184-.019h-.068a.3.3,0,0,0-.087.01.1.1,0,0,0-.077.087v.01a.155.155,0,0,0,.155.087m2.023,1.384a.058.058,0,0,0-.039.01c-.029.01-.058.029-.058.058a.083.083,0,0,0,.087.068.058.058,0,0,0,.039-.01.071.071,0,0,0,.048-.058.074.074,0,0,0-.019-.048c-.01-.019-.029-.019-.058-.019m1.094,3.842h0a.08.08,0,0,0-.068.087.071.071,0,0,0,.019.058.081.081,0,0,0,.068.039h.029a.083.083,0,0,0,.068-.087.091.091,0,0,0-.1-.1ZM95.119,68.4c-.019-.01-.1-.039-.1-.039h-.068a.24.24,0,0,0-.087.01.112.112,0,0,0-.068.048v.019a.082.082,0,0,0,.029.048.637.637,0,0,0,.145.039.5.5,0,0,0,.106-.019c.019-.01.029-.01.048-.019s.01-.01.019-.01a.036.036,0,0,0,.019-.029.218.218,0,0,0-.048-.048m8.371,2.855c-.048,0-.087.01-.116.01a.363.363,0,0,0-.116.068.705.705,0,0,0-.068.058.036.036,0,0,0-.01.029c0,.01.019.019.029.019a.687.687,0,0,0,.135.019c.029,0,.048.019.106.048a.073.073,0,0,0,.048.01.282.282,0,0,0,.087-.019c.01,0,.019-.01.029-.01h0l.01.01c.01.01.01.019.048.019a.06.06,0,0,0,.048-.029.073.073,0,0,0,.01-.048v-.01a.186.186,0,0,0-.165-.174h-.077M95.555,68.2h0c-.01,0-.019-.01-.029-.01a.065.065,0,0,0-.058.039c-.01.019-.01.048-.019.058s-.01.019-.019.019l-.087.029c-.01.01-.019.01-.039.019a.05.05,0,0,0-.019.039c0,.01.01.029.019.029a.036.036,0,0,0,.029.01c.019,0,.039.01.058.01a.4.4,0,0,0,.106-.01c.029-.01.058-.01.077-.039a.4.4,0,0,0,.019-.058c0-.019.01-.048.01-.068v-.039c-.019,0-.019-.019-.048-.029m10.829,5.245h0c-.068-.029-.155-.039-.184-.077a.436.436,0,0,0-.1-.087.275.275,0,0,0-.116-.039h-.029a.189.189,0,0,1-.077.01.1.1,0,0,1-.058-.019c-.058-.039-.155-.087-.184-.106a.373.373,0,0,0-.194-.058c-.01,0-.01,0-.039-.01-.01,0-.029.01-.039.01a.084.084,0,0,0-.029-.058.11.11,0,0,0-.077-.029h-.01a.068.068,0,0,0,.039-.048.13.13,0,0,0-.019-.077.1.1,0,0,0-.087-.068h0a.727.727,0,0,0-.1-.155.4.4,0,0,0-.281-.155h-.039a.363.363,0,0,1-.1.01c-.029,0-.039,0-.058-.039-.048-.087-.106-.116-.116-.145a.088.088,0,0,0-.077-.039h-.048l-.019-.019c-.01-.01-.019-.01-.039-.01a.537.537,0,0,0,.068-.184v-.019a.03.03,0,0,0-.01-.019.036.036,0,0,0-.029-.01h-.019q-.029.015-.029.029a.1.1,0,0,1-.039.048.009.009,0,0,1-.01.01l-.058-.058a.187.187,0,0,0-.1-.029.286.286,0,0,0-.1.019.087.087,0,0,0-.058.058h0a.009.009,0,0,0-.01-.01.127.127,0,0,0-.116-.058.2.2,0,0,0-.106.029.074.074,0,0,1-.019-.048c-.01-.01-.01-.029-.019-.039a.06.06,0,0,0-.048-.029.22.22,0,0,0-.174.126c0,.01-.01.01-.01.019v-.029a.164.164,0,0,1,.019-.048.144.144,0,0,0,.029-.068.071.071,0,0,0-.048-.058H103.4a.248.248,0,0,0-.116.048.134.134,0,0,0-.039.029.009.009,0,0,0-.01.01h0a.321.321,0,0,0-.174.135c-.048.058-.068.1-.1.106h-.029c0-.019-.01-.029-.019-.048a.258.258,0,0,0-.135-.068c-.01,0-.039,0-.048.019a.805.805,0,0,1-.135.068h-.019c-.019,0-.058-.039-.068-.058-.019-.048-.039-.029-.048-.126v-.039a.644.644,0,0,1,.039-.213.034.034,0,0,1,.01-.019.249.249,0,0,0-.194-.194h-.01a.667.667,0,0,0-.077.029.164.164,0,0,1-.048.019h0c-.019,0-.019,0-.029-.01s-.029-.01-.058-.01c.01-.01.01-.029.019-.039v-.106a.094.094,0,0,1,.039-.087.159.159,0,0,0,.058-.135.182.182,0,0,0-.019-.077c-.01-.019-.029-.048-.058-.048h-.029c-.058,0-.116.019-.165.019H101.9a.12.12,0,0,0-.126.116.058.058,0,0,0,.01.039v.019c0,.019-.01.029-.01.039l-.01.01a.082.082,0,0,0-.058-.019.139.139,0,0,0-.1.039.5.5,0,0,1-.048.029c-.01,0-.039-.01-.077-.058-.077-.068-.155-.126-.165-.223a.782.782,0,0,1-.01-.145.259.259,0,0,1,.019-.106.191.191,0,0,0,.019-.106.165.165,0,0,0-.01-.068c-.01-.01-.01-.029-.029-.039h0a.171.171,0,0,1,.077-.048.373.373,0,0,0,.165-.126.342.342,0,0,1,.058-.01h.077a.246.246,0,0,1,.155.039.179.179,0,0,0,.068.019c.039,0,.068-.019.068-.039a.105.105,0,0,0,.01-.048s.01-.029.058-.029h.048c.068,0,.145-.019.174-.019h.01a.211.211,0,0,1,.029.048c.019.019.039.048.077.048.019,0,.029-.01.039-.01l.01-.01a1.2,1.2,0,0,0,.039.155c.019.048.039.1.1.116.01,0,.019.01.019.039a.163.163,0,0,0,.019.048.089.089,0,0,0,.058.039h.01a.059.059,0,0,0,.058-.029.3.3,0,0,0,.058-.155.123.123,0,0,0-.01-.058.661.661,0,0,1-.039-.126.783.783,0,0,0-.058-.126.043.043,0,0,1-.01-.048.081.081,0,0,1,.039-.068.742.742,0,0,0,.165-.116c.058-.048.116-.1.145-.116s.048-.029.087-.048.077-.039.077-.087c0-.01-.01-.029-.01-.039-.029-.048-.048-.068-.048-.1.01.01.029.019.039.01a.1.1,0,0,0,.077-.039.1.1,0,0,0,.039-.068.036.036,0,0,0-.01-.029c0-.01-.01-.019-.01-.029v-.01h.019a.1.1,0,0,0,.058-.019.074.074,0,0,0,.019-.048.058.058,0,0,0-.01-.039.058.058,0,0,1,.039-.01h.01a.123.123,0,0,0,.058.01c.039,0,.068-.01.106-.01a.157.157,0,0,0,.087-.048.036.036,0,0,0,.01-.029.083.083,0,0,0-.029-.058c-.01-.019-.019-.029-.019-.048a.07.07,0,0,1,.039-.058.129.129,0,0,1,.068-.029.24.24,0,0,0,.077-.01.058.058,0,0,0,.039-.01c.01,0,.029-.019.039-.039l.019-.019a.241.241,0,0,0,.01.077.074.074,0,0,0,.019.048.075.075,0,0,0,.068.029.237.237,0,0,0,.116-.039.133.133,0,0,0,.039-.029.009.009,0,0,0,.01-.01h0c.019-.01.155-.039.184-.048a.811.811,0,0,0,.1-.019c.019-.01.048-.01.068-.019a.1.1,0,0,0,.048-.058v-.019a.353.353,0,0,0-.068-.135.074.074,0,0,0-.048-.019c-.029,0-.039.019-.058.029s-.019.029-.029.039l-.019.019h0v-.048a.073.073,0,0,0-.01-.039.053.053,0,0,0-.048-.039c-.019,0-.029.01-.039.01a.211.211,0,0,0-.048.039h0c-.01-.01-.01-.019-.019-.029h0a.111.111,0,0,0,.029-.068.246.246,0,0,0-.019-.068.126.126,0,0,0-.116-.058.274.274,0,0,0-.126.039c-.039.019-.048.029-.068.029h0c.039-.039.106-.058.165-.116h.019a.2.2,0,0,1,.058.019.12.12,0,0,1,.029.019.029.029,0,0,0,.039,0v.01a.123.123,0,0,0,.01.058.054.054,0,0,0,.058.048.187.187,0,0,0,.1-.029.171.171,0,0,0,.068-.068h.01a.135.135,0,0,0,.087-.029.56.56,0,0,1,.135-.048.329.329,0,0,0,.058-.058c.019-.019.029-.019.029-.019a.009.009,0,0,1,.01.01.052.052,0,0,1-.029.039.247.247,0,0,0-.087.116c-.019.039-.029.077-.039.077a.084.084,0,0,0-.029.058.053.053,0,0,0,.029.048.138.138,0,0,0,.058.019h.126a.165.165,0,0,0,.068-.01h.01a.052.052,0,0,1,.039.029c.01.01.029.029.048.019a.1.1,0,0,0,.058-.019l.01-.01h.029a.042.042,0,0,1,.029.01.06.06,0,0,0,.048.029c.029,0,.048-.019.048-.029a.058.058,0,0,0,.01-.039.087.087,0,0,0-.01-.048c-.019-.039-.048-.077-.068-.116a.1.1,0,0,0-.106-.068.087.087,0,0,0-.048.01h-.019c-.01,0-.01,0-.019-.01a.134.134,0,0,0-.039-.029.009.009,0,0,1-.01-.01c.019-.029.029-.048.058-.087,0-.01.019-.029.039-.048a.11.11,0,0,0,.029-.077.073.073,0,0,0-.068-.068.212.212,0,0,1-.087-.029c-.01-.01-.019-.01-.019-.029-.01-.039-.048-.068-.077-.1a.21.21,0,0,1-.048-.039.1.1,0,0,0-.058-.019h-.068c-.01,0-.019-.01-.029-.01h0c-.01-.058-.087-.135-.116-.174-.019-.019-.058-.068-.1-.116a.42.42,0,0,0-.058-.068l-.039-.039c-.01-.01-.019-.01-.039-.01-.058.01-.077.039-.135.106s-.087.077-.1.077-.019,0-.019-.01c-.029-.01-.039-.019-.048-.019l-.048-.048-.01-.01a.034.034,0,0,1,.019-.01.06.06,0,0,0,.029-.048.036.036,0,0,0-.01-.029c-.019-.039-.068-.048-.106-.058a.805.805,0,0,0-.126-.019.3.3,0,0,1-.087-.039.5.5,0,0,0-.145-.058h-.048c-.1,0-.2.019-.223.019a.074.074,0,0,0-.048.019.288.288,0,0,0-.039.145v.029a.123.123,0,0,0,.01.058v.01a.419.419,0,0,0-.048.01.034.034,0,0,0-.019.01c-.01.01-.019.019-.019.029a.05.05,0,0,0,.019.039c.01.01.019.01.039.019a.555.555,0,0,1,.087.077c.019.019.029.039.039.048s0,.01-.01.019a.212.212,0,0,1-.029.048.265.265,0,0,1-.068.039h0a.115.115,0,0,0-.087-.048.087.087,0,0,0-.048.01.053.053,0,0,0-.029.048.036.036,0,0,0,.01.029.42.42,0,0,0,.039.068c.01.019.019.029.019.039a.228.228,0,0,0,.019.077.3.3,0,0,1,.019.077v.019a.036.036,0,0,1-.029.01c-.019,0-.039-.01-.058-.01h-.019a.034.034,0,0,1-.01-.019.071.071,0,0,0,.019-.058.4.4,0,0,0-.019-.106c0-.01-.019-.019-.029-.019a.05.05,0,0,0-.039.019l-.019.019c0-.01-.01-.029-.019-.029a.058.058,0,0,1-.01-.039.075.075,0,0,0-.029-.068.11.11,0,0,0-.077-.029.087.087,0,0,0-.048.01h-.019c-.048,0-.116-.029-.223-.048a.694.694,0,0,1-.261-.087.258.258,0,0,0-.116-.029.193.193,0,0,0-.087.019.164.164,0,0,0-.019-.048.116.116,0,0,0-.068-.068.31.31,0,0,0-.068-.01h0c0-.01-.01-.019-.01-.039v-.029c0-.029.01-.039.029-.068a1.322,1.322,0,0,1,.135-.1,1.2,1.2,0,0,0,.145-.126.182.182,0,0,1,.1-.039h.135a.105.105,0,0,0,.048-.01.053.053,0,0,0,.029-.048v-.029l.01.01c.01.01.019.01.029.019h0c-.029.019-.048.039-.048.068a.053.053,0,0,0,.039.048h.048a.343.343,0,0,0,.106-.029c.029-.01.048-.029.058-.029a.042.042,0,0,1,.029-.01.123.123,0,0,1,.058-.01h.01l.029.058h0a.138.138,0,0,0-.058-.019.088.088,0,0,0-.077.039.036.036,0,0,0-.01.029c0,.039.029.039.048.048a.144.144,0,0,0,.068.01.072.072,0,0,0,.068-.029.048.048,0,0,0,0-.058.082.082,0,0,0,.058.019.156.156,0,0,0,.087-.029c.029-.019.058-.039.058-.077a.1.1,0,0,0-.048-.077c-.048-.029-.1-.039-.126-.058a.171.171,0,0,1-.077-.048l-.029-.029a.521.521,0,0,1,.1-.029s.039-.01.068-.019.077-.039.077-.087v-.029c-.01-.048-.048-.068-.077-.087a.036.036,0,0,0-.029-.01c.01-.01.039-.019.048-.029h.135a.105.105,0,0,0,.048-.01c.01,0,.019-.01.029-.019a.034.034,0,0,1,.01.019.074.074,0,0,0,.048.019h.029c.019,0,.029-.01.039-.01s.019,0,.048.019h0a.164.164,0,0,1-.019.048.034.034,0,0,1-.01.019.009.009,0,0,1-.01.01c-.01.01-.029.01-.039.019a.1.1,0,0,0-.039.048.043.043,0,0,0,.029.039.058.058,0,0,0,.039.01,1.314,1.314,0,0,0,.145.01.036.036,0,0,0,.029-.01.416.416,0,0,0,.077-.106h0c.01,0,.019.01.029.019a.036.036,0,0,0,.029.01.263.263,0,0,0-.155.116c-.01.019-.019.019-.019.029h-.01a.105.105,0,0,1-.048-.01.363.363,0,0,0-.1-.01.127.127,0,0,0-.116.058.179.179,0,0,0-.019.068.143.143,0,0,0,.01.068c0,.01.01.019.019.029a.057.057,0,0,0,.048.019h.019a1,1,0,0,0,.116-.029h.029c.058,0,.145.01.2.01h.029a.009.009,0,0,1,.01.01.211.211,0,0,0,.048.029.231.231,0,0,0,.068.029h.019a.308.308,0,0,1,.068.058c.01.01.019.01.039.01a.05.05,0,0,0,.039-.019l.019-.019a.03.03,0,0,1,.019.01c.039.029.039.039.048.039a.036.036,0,0,0,.029.019h.029c.039,0,.135.01.135.01a.036.036,0,0,0,.029-.01c.01-.01.01-.01.01-.019v-.01a.034.034,0,0,1,.01-.019.009.009,0,0,1,.01-.01h.01c.019,0,.039.019.058.029s.019.01.029.019.019.01.039.01a.073.073,0,0,0,.039-.019.036.036,0,0,0,.01-.029v-.01a.268.268,0,0,0-.01-.087.1.1,0,0,0-.058-.087.291.291,0,0,0-.106-.058c-.019-.01-.029-.019-.039-.019l-.01-.01h0a.03.03,0,0,1-.01-.019.228.228,0,0,1,.126.048.3.3,0,0,0,.135.068.138.138,0,0,0,.058-.019.883.883,0,0,0,.126-.077,1.062,1.062,0,0,0,.077-.1.018.018,0,0,0,0-.029c-.01-.01-.019-.019-.029-.019l-.106-.019c-.029-.01-.058-.01-.077-.019s-.019-.01-.029-.01h-.01a.3.3,0,0,0-.087-.068.251.251,0,0,0-.1-.039.419.419,0,0,0-.048.01c-.01,0-.029.01-.039.01s-.01,0-.019-.019c-.01-.039-.019-.077-.029-.106s-.01-.029-.01-.048-.01-.029-.039-.039a1.016,1.016,0,0,0-.184-.029.579.579,0,0,0-.116-.019l-.058-.019c-.029-.019-.077-.029-.135-.058s-.116-.048-.145-.058a.542.542,0,0,0-.232-.1c-.058,0-.252.029-.319.029h-.039a1.138,1.138,0,0,0-.2.029.073.073,0,0,0-.039.019.036.036,0,0,0-.01.029.191.191,0,0,0,.019.068c0,.01.01,0-.019.01-.01,0-.029.01-.039.01a.419.419,0,0,0,.01-.048v-.039a.094.094,0,0,0-.039-.087c-.01-.01-.019-.019-.029-.019h.048c.1.01.232.019.329.019h.048a.156.156,0,0,0,.106-.029c.029-.019.039-.039.039-.048v-.019a.05.05,0,0,0-.019-.039.273.273,0,0,0-.106-.039.58.58,0,0,0-.116-.019h-.6a.318.318,0,0,1-.116-.058c-.019-.01-.048-.039-.087-.068a.327.327,0,0,0-.116-.058c-.058-.01-.039-.01-.165-.039-.029-.01-.068-.019-.106-.029-.019,0-.029-.01-.039-.01h0a.019.019,0,0,0-.029-.01.042.042,0,0,0-.029.01c-.01.01-.01.01-.01.019a.419.419,0,0,0-.01.048.093.093,0,0,0,.048.087,2.024,2.024,0,0,0,.2.1.591.591,0,0,0,.126.029c.039.01.068.019.077.039a.471.471,0,0,0,.184.106h.01l.155.019a.672.672,0,0,1-.126.048.322.322,0,0,0-.058.029.065.065,0,0,0-.039.058.036.036,0,0,0,.01.029.1.1,0,0,1,.01.058.132.132,0,0,0,.058.1.291.291,0,0,0,.106.058h-.01a.11.11,0,0,0-.077.029c-.01.01-.019.019-.029.019a.009.009,0,0,0-.01-.01.257.257,0,0,0-.126-.126.749.749,0,0,0-.1-.116c-.01-.01-.029-.019-.039-.029a.475.475,0,0,1,.106-.01.083.083,0,0,0,.068-.087.066.066,0,0,0-.068-.068.073.073,0,0,1-.039-.019.14.14,0,0,0-.068-.019h-.019a.036.036,0,0,0,.01-.029v-.019a.13.13,0,0,0-.135-.077.121.121,0,0,0-.106.058v.019c0,.039.039.058.058.068a.283.283,0,0,0,.087.019h.01l-.058.029c-.019.01-.039.029-.058.039a.089.089,0,0,0-.039.058v.019a.1.1,0,0,0,.1.048.05.05,0,0,0-.019.039v.019a.321.321,0,0,0,.048.145.342.342,0,0,1,.029.135v.019c-.048.01-.068.019-.106.029h-.01l-.01-.01c0-.01-.01-.019-.01-.039,0-.048-.01-.1-.01-.116v-.01h0a.034.034,0,0,0,.01-.019c0-.01-.01-.029-.019-.029s-.019,0-.019-.01c-.029,0-.058.01-.087.01h-.068a.165.165,0,0,0-.068.01.064.064,0,0,0-.039.048c0,.029.029.048.058.058a.064.064,0,0,1,.039.048c0,.019-.01.019-.019.029a.748.748,0,0,1-.1.01c-.1,0-.223-.01-.271-.01s-.1.01-.126.01h-.048a.185.185,0,0,1,.077-.029h.029a.3.3,0,0,0,.261-.1.138.138,0,0,0,.019-.058c0-.048-.048-.068-.077-.077a.434.434,0,0,0-.106-.01c-.039,0-.068-.01-.135-.077a.03.03,0,0,1-.01-.019c0-.01.01-.019.019-.039s.029-.029.029-.058v-.019a.021.021,0,0,0-.019-.019h.019a.1.1,0,0,0,.068-.077c.01-.01.01-.029.019-.029h0c.029,0,.068-.01.106-.01h.039c.01,0,.01,0,.01.01s.01.029.019.039a.1.1,0,0,0,.048.019h.068a.157.157,0,0,0,.106-.048.171.171,0,0,0,.048-.077v-.01c0-.048-.048-.1-.135-.1h-.377a.11.11,0,0,0-.077.029h0a.1.1,0,0,0-.029.077c0,.029.01.058.01.077a.036.036,0,0,0-.01.029c0,.019.01.029.019.048l.01.01h-.01c-.039,0-.077.01-.106.01h0a.034.034,0,0,1,.019-.01c.01-.01.039-.029.039-.058a.829.829,0,0,1,.029-.126v-.019a.108.108,0,0,0-.087-.058.087.087,0,0,0-.048.01l-.058.029h-.019a.167.167,0,0,0-.029-.039.078.078,0,0,0-.087-.039h-.029a.246.246,0,0,0-.135.087.1.1,0,0,1-.048.019h0c-.019-.01-.126-.077-.126-.077a.03.03,0,0,1-.019-.01c.039,0,.087-.019.116-.019h.01a.071.071,0,0,0,.058.019.123.123,0,0,0,.058-.01c.019-.01.039-.019.039-.048v-.01h0a.545.545,0,0,0,.01-.068.087.087,0,0,0-.01-.048.065.065,0,0,0-.058-.039h-.01c-.087,0-.155.068-.232.087a.081.081,0,0,0-.058.077.073.073,0,0,0,.048.068.3.3,0,0,1-.087-.01c-.029,0-.058-.01-.077-.01h-.019a.166.166,0,0,0-.155-.087h-.029a1.883,1.883,0,0,0-.194.048.3.3,0,0,1-.077.019c-.01,0-.019.01-.029.01h-.01a.034.034,0,0,0-.039.039v.019a.105.105,0,0,0-.048.01c-.019.01-.048.029-.048.058v.019a.05.05,0,0,0,.019.039c.039.019.068.01.116.019h.116a.159.159,0,0,0,.1-.019.176.176,0,0,1,.106-.019h0c0,.019.01.029.01.048h-.029a.19.19,0,0,0-.1.029c-.019.01-.029.019-.048.019h-.019c-.029,0-.048-.01-.077-.01-.048,0-.077.01-.126.01h-.039c-.039,0-.068-.01-.087-.01a.165.165,0,0,0-.068.01.065.065,0,0,0-.039.058l-.029.087c-.01.01-.01.019-.019.029h0a.074.074,0,0,0-.048.019.06.06,0,0,0-.029.048c0,.029.019.039.039.048a.616.616,0,0,0,.087.019c.058.01.048.01.068.019s.01.019.029.029a.14.14,0,0,0,.068.019h.019a.853.853,0,0,0,.165-.019.143.143,0,0,0,.116-.077c0-.01.01-.01.01-.019.029.048.106.145.106.145l.01.01a.44.44,0,0,0,.087.068l-.01.01a.009.009,0,0,1-.01-.01.315.315,0,0,0-.126-.039.212.212,0,0,1-.077-.029.347.347,0,0,0-.106-.039.552.552,0,0,0-.126-.01.215.215,0,0,0-.087.01h-.01c-.019,0-.048-.01-.077-.01a.213.213,0,0,0-.077-.01.074.074,0,0,0-.048.019c-.019.01-.039.029-.058.039-.01-.019-.029-.039-.039-.058s-.029-.029-.048-.019a.065.065,0,0,0-.058.029c-.01.01-.01.01-.019.01h0a.332.332,0,0,0-.145-.039.123.123,0,0,0-.058.01.537.537,0,0,0-.077.039c-.01.01-.019.01-.048.01h-.029c-.1-.01-.126-.019-.174-.019h-.029l-.039.01c-.019,0-.029.019-.029.039,0,0,0,.01-.029.029s-.029.019-.048.029a.009.009,0,0,0-.01.01h0l-.01-.01a.217.217,0,0,0-.1-.068.12.12,0,0,0-.029-.019.182.182,0,0,0-.077-.019.189.189,0,0,0-.068.01H97.8a.485.485,0,0,1-.116-.019A.491.491,0,0,0,97.6,66.8c-.019,0-.281-.019-.329-.029a.835.835,0,0,0-.165-.01.331.331,0,0,0-.106.01,1.111,1.111,0,0,1-.174.01.211.211,0,0,0-.048-.029c-.019-.01-.029-.019-.048-.029a.248.248,0,0,0-.048-.019c-.019,0-.029.01-.048.01s-.029.01-.039.01h-.019a.247.247,0,0,0-.116-.068h-.029a.021.021,0,0,0-.019.019l-.019.039c-.01.019-.029.039-.039.039a.961.961,0,0,1-.145.029h0a.036.036,0,0,0-.029-.01.369.369,0,0,0-.126.039.753.753,0,0,1-.087.029l-.01.01a.2.2,0,0,0-.048.048.133.133,0,0,0-.039.029c-.01,0-.01.01-.019.01h0a.24.24,0,0,0-.087-.01h-.039c-.01,0-.039.019-.039.039v.019a.115.115,0,0,0,.019.058.153.153,0,0,0,.126.048.164.164,0,0,1,.087.019c.019.01.029.029.068.029s.039,0,.048.01.019.01.039.029.019.019.019.029h-.01a.325.325,0,0,1-.155-.048l-.039-.039a.058.058,0,0,0-.039-.01l-.068.039a.666.666,0,0,0-.232.068.035.035,0,0,0-.019.048.388.388,0,0,0,.106.126.526.526,0,0,0,.242.048h0a.392.392,0,0,0-.087.048c-.019.019-.048.029-.068.048a.081.081,0,0,0-.039.068.058.058,0,0,0,.01.039.174.174,0,0,0,.048.068h-.087c-.01,0-.019.01-.058.019a.043.043,0,0,0-.029.039.05.05,0,0,0,.019.039.212.212,0,0,0,.048.029.1.1,0,0,0,.058.019.056.056,0,0,0,.058-.039.138.138,0,0,0,.019-.058v-.01l.039.039c.01.01.01.01.01.019v.01c0,.029.039.039.058.039a.156.156,0,0,0,.087-.029c.029-.019.048-.029.058-.058v.048a.133.133,0,0,0,.106.106c.019,0,.029,0,.039-.019a.139.139,0,0,1,.019-.029.009.009,0,0,1,.01-.01l.029.029.039.039a.044.044,0,0,0,.048,0,.12.12,0,0,1,.029-.019.058.058,0,0,1,.039-.01h0s0,.01-.019.019a.322.322,0,0,1-.058.029c-.019.01-.068.029-.116.048a.426.426,0,0,0-.116.058.862.862,0,0,1-.1.048l-.058.029a.034.034,0,0,0-.019.01h-.01c-.029,0-.048.019-.048.029a.073.073,0,0,0-.01.048.053.053,0,0,0,.019.048.069.069,0,0,0,.058.029h.01a2.185,2.185,0,0,0,.3-.1h.048a.262.262,0,0,0,.116-.039c.058-.029.106-.068.145-.087a.212.212,0,0,0,.048-.029.034.034,0,0,0,.019-.01h0a.134.134,0,0,0,.1.068h.029c.077,0,.116-.068.145-.077a.151.151,0,0,0,.058-.116.036.036,0,0,0-.01-.029.073.073,0,0,0-.039-.019h-.029a.1.1,0,0,0,.039-.068.11.11,0,0,1,.029-.077c0,.01-.01.019-.01.029a.073.073,0,0,0-.01.039c0,.019.01.029.019.048s.029.019.048.019a.212.212,0,0,0,.116-.048l.039-.019a.235.235,0,0,0,.106-.039.288.288,0,0,0,.077-.068c.019-.01.01-.01.019-.01h0c.01,0,.029.019.058.029a.184.184,0,0,0,.087.029.087.087,0,0,0,.048-.01h.01a.491.491,0,0,1,.087.019l.116.029a.654.654,0,0,1,.165.048.521.521,0,0,0,.1.029.228.228,0,0,0,.077.019.193.193,0,0,1,.077.029.111.111,0,0,1,.058.087.1.1,0,0,0,.039.1.13.13,0,0,0,.077.019h.019a.246.246,0,0,1,.068.019c.01.01.019.01.029.019l.01.01c0,.01-.01.058-.01.1a.149.149,0,0,0,.068.155.392.392,0,0,0,.087.048.144.144,0,0,0,.087.039.036.036,0,0,0,.029-.01.058.058,0,0,0,.029-.058.087.087,0,0,0-.01-.048c0,.01.01.01.01.019a.083.083,0,0,0,.058.029.009.009,0,0,1,.01.01.171.171,0,0,1,.048.077v.01a.058.058,0,0,0-.01.039.143.143,0,0,0,.126.135.173.173,0,0,1,.068.048c.019.01.029.029.039.039a.1.1,0,0,0,.048.029.139.139,0,0,1,.029.019.009.009,0,0,0,.01.01h0a.558.558,0,0,0,.019.1.631.631,0,0,1,.019.106c0,.048-.019.261-.029.339v.019a.5.5,0,0,0,.135.31.82.82,0,0,1,.1.135.6.6,0,0,0,.087.116.369.369,0,0,1,.048.058.139.139,0,0,0,.1.058h.019c.019,0,.029.01.048.029a.7.7,0,0,1,.068.106.95.95,0,0,1,.077.174.576.576,0,0,0,.039.077.08.08,0,0,0,.048.048c.01,0,.029.019.048.029a.139.139,0,0,1,.019.029h0a.232.232,0,0,0-.068.116.039.039,0,0,0,.019.039.074.074,0,0,0,.048.019.521.521,0,0,0,.077-.01s.01,0,.029.029.058.058.068.077a.167.167,0,0,1,.029.039h0v.01a.076.076,0,0,0,.048.068.138.138,0,0,0,.058.019h0l.048.048a.187.187,0,0,0,.087.048.069.069,0,0,0,.058-.029.084.084,0,0,0,.029-.058c0-.048-.039-.077-.068-.106a.428.428,0,0,0-.087-.068c-.01,0-.01-.029-.019-.068a.282.282,0,0,0-.077-.135.555.555,0,0,1-.077-.087l.155.155a.589.589,0,0,1,.106.155.538.538,0,0,0,.058.077l.029.029a.05.05,0,0,0,.039.019c.01,0,.039.029.058.058l.048.048c0,.01.01.019.019.039a.2.2,0,0,1,.019.058h0a.058.058,0,0,0-.01.039.231.231,0,0,0,.1.174c.048.029.252.126.271.145.01,0,.029.039.058.068a.18.18,0,0,0,.126.068c.077,0,.126.01.126.019s.019.029.039.048a.106.106,0,0,0,.087.039.069.069,0,0,0,.058-.029c.019-.029.039-.048.048-.048s.01-.01.039-.01.029.01.048.019.029.039.048.058a.79.79,0,0,0,.087.077.191.191,0,0,0,.116.058h.01a.164.164,0,0,1,.048.019.144.144,0,0,0,.077.029.058.058,0,0,0,.039-.01h0c.01,0,.048.019.077.029s.106.058.1.116v.029a.149.149,0,0,0,.116.145.614.614,0,0,1,.126.106.2.2,0,0,0,.087.048.058.058,0,0,0,.039.01h.01a.139.139,0,0,0,.019.029.083.083,0,0,0,.058.029.246.246,0,0,0,.068-.019.136.136,0,0,0,.068-.1h0c.019,0,.039,0,.039.01s.019.039.039.068c.01.01.01.029.019.039s.01.019.029.039h0l.019.039a.189.189,0,0,1,.01.077.073.073,0,0,1-.01.048,1,1,0,0,0-.029.116.036.036,0,0,1-.01.029.133.133,0,0,0-.039.029.2.2,0,0,0-.039.058.181.181,0,0,1-.029.039.678.678,0,0,0-.1.077c-.029.039-.068.068-.068.106v.01a.887.887,0,0,0,.029.087.359.359,0,0,1,.019.087v.01a.173.173,0,0,1-.048.068.215.215,0,0,0-.048.106v.029a.25.25,0,0,0,.106.116c.039.029.068.048.068.058a.422.422,0,0,0,.058.165.49.49,0,0,1,.058.145.342.342,0,0,0,.077.126.216.216,0,0,1,.058.126.208.208,0,0,0,.1.155.434.434,0,0,0,.126.058.378.378,0,0,1,.048.039.455.455,0,0,0,.087.058.28.28,0,0,1,.106.106.246.246,0,0,1,.019.116v.029c0,.019-.029.242-.048.368,0,.029-.01.048-.01.077,0,.058.01.106.01.145a.042.042,0,0,1-.01.029c-.029.029-.077.048-.087.106a.074.074,0,0,0,.019.048h0l-.019.019-.019.019c-.01.01-.019.019-.019.029a.246.246,0,0,0,.019.068.3.3,0,0,1,.019.077v.019c-.029.058-.058.126-.077.165s-.058.068-.068.135v.039c0,.01,0,0-.019.019a.092.092,0,0,0-.048.077.087.087,0,0,0,.039.077c.01.01.01,0,.01.019v.019a.328.328,0,0,1-.029.077.182.182,0,0,0-.019.077.286.286,0,0,0,.019.1l.019.058a.407.407,0,0,0-.019.048.455.455,0,0,1-.058.087c-.048.048-.087.087-.087.135v.019a.158.158,0,0,0,.029.058.03.03,0,0,1,.01.019v.01c0,.01-.019.029-.029.048a.343.343,0,0,0-.039.087v.01c0,.039.039.058.058.068s.019,0,.019.01l-.019.019a.06.06,0,0,0-.029.048.05.05,0,0,0,.019.039.572.572,0,0,1,.058.039c.01.01.01.01.01.029v.039c0,.1.106.126.106.135l.048.048a.156.156,0,0,0,.068.039.021.021,0,0,0,.019.019.034.034,0,0,1,.019.01c.01,0,.039.019.068.029a.258.258,0,0,0,.116.029c.068,0,.174-.029.2-.029l.1-.019c.019,0,.048-.01.068-.01s.039-.01.048-.029.01-.01.01-.019-.019-.029-.019-.039c-.029-.01-.058-.01-.087-.019a.193.193,0,0,1-.087-.019.446.446,0,0,1-.1-.068.2.2,0,0,1-.068-.077.419.419,0,0,1-.01-.048c0-.039.01-.068.029-.077a2.3,2.3,0,0,0,.2-.145.409.409,0,0,0,.048-.068.228.228,0,0,0,.019-.077.039.039,0,0,0-.019-.039.087.087,0,0,0-.048-.01h-.087s0-.019.048-.048a.37.37,0,0,0,.087-.087.368.368,0,0,1,.048-.058.372.372,0,0,0,.116-.126c0-.01.01-.019.01-.029s0-.019-.019-.029a.048.048,0,0,0-.029-.01c-.029,0-.039.01-.058.01l-.01-.01a.1.1,0,0,1-.019-.058c.01,0,.029.01.039.01l.1.029h.029a.053.053,0,0,0,.048-.019.073.073,0,0,0,.019-.039c0-.029-.01-.048-.01-.068v-.01c0-.019,0-.029.01-.039h0a.189.189,0,0,0,.077.01,1.213,1.213,0,0,0,.232-.019c.029-.01.029-.019.048-.039.039-.048.087-.126.106-.145a.1.1,0,0,0,.029-.068.084.084,0,0,0-.039-.068l-.01-.01a.344.344,0,0,0,.1.019.218.218,0,0,0,.165-.077c.087-.087.174-.135.184-.213a.181.181,0,0,1,.048-.106c.01,0,.019.01.039.01a.074.074,0,0,0,.048-.019.212.212,0,0,0,.029-.048.267.267,0,0,1,.058-.077.226.226,0,0,0,.068-.087c.01-.019.01-.039.019-.058a1.029,1.029,0,0,0-.029-.135c0-.019,0-.019.019-.039a2.217,2.217,0,0,1,.232-.126.075.075,0,0,0,.029-.01.392.392,0,0,1,.1-.029.471.471,0,0,1,.116-.01.113.113,0,0,0,.106-.048,1.14,1.14,0,0,1,.106-.184.305.305,0,0,0,.087-.165.073.073,0,0,0-.01-.039h0a.351.351,0,0,1,.029-.106.51.51,0,0,0,.029-.116v-.01a.361.361,0,0,1-.019-.116.131.131,0,0,1,.048-.1,1.246,1.246,0,0,0,.165-.155.3.3,0,0,0,.087-.126c0-.01.029-.058.048-.106a.478.478,0,0,0,.048-.155v-.01c-.126-.077-.2-.174-.271-.2m-3.474-4.365Zm-.068.106.058-.058c.01-.01.01-.01.019-.01h.019c.029,0,.077-.01.106-.01h.019a.666.666,0,0,1-.077.029.668.668,0,0,0-.077.029c-.019.01-.048.019-.058.048,0,.01-.029.019-.068.039-.01,0-.01.01-.019.01l.077-.077m-.116-.2c.01.01.01.019.019.029h0c-.01-.01-.019-.019-.019-.029h0m-.019.319-.01.01a.123.123,0,0,1-.068.039l.01-.01h0c.01-.019.039-.029.068-.039m-.184-.358h.019l-.01-.029.01.029h.126a.009.009,0,0,0-.01.01.1.1,0,0,0-.019.058.165.165,0,0,0-.01.068.123.123,0,0,0,.01.058h0a.139.139,0,0,1-.019.029.03.03,0,0,1-.019.01h0c-.01-.01-.01-.039-.01-.077v-.039a.125.125,0,0,0-.087-.126c0,.01.01.01.019.01m-.087-.019h-.029a.26.26,0,0,0-.165.106.072.072,0,0,0-.029.068c0,.029-.01.058-.01.077v.087a.073.073,0,0,1-.01.048l-.01.01h0l-.01-.01c-.01-.01-.01-.039-.01-.058s0-.058.01-.068v-.019c0-.039-.01-.077-.01-.126a.143.143,0,0,1,.01-.068.175.175,0,0,1,.145-.068h.01a.5.5,0,0,1,.106.019h0m-.552-.155h0a.341.341,0,0,0,.1-.039l-.019-.029.019.029c.048-.019.087-.048.126-.068a.75.75,0,0,1,.068-.039.5.5,0,0,0,.174.116c0,.01-.01.019-.01.029l-.019.019h0a1.344,1.344,0,0,0-.145-.019c-.019,0-.019,0-.019-.01a.009.009,0,0,0-.01-.01c0-.01-.019-.019-.039-.019h-.019a.631.631,0,0,0-.145.048.058.058,0,0,1-.039.01h-.019v-.019m.532-1.587h-.039l-.01-.01a.073.073,0,0,0,.048.01m-.31-.329h.077a.3.3,0,0,1,.1.01h.01v.019c0,.01-.01.019-.01.029v.01a.2.2,0,0,0-.058.019.1.1,0,0,0-.068.068h0v-.029a.118.118,0,0,0-.039-.087c-.019-.01-.039-.029-.058-.039h.048m-.542-.242v0Zm-5.623.755a.073.073,0,0,1-.039.019h-.039c.01,0,.019-.01.029-.019a.053.053,0,0,1,.048-.019h.01a.034.034,0,0,1-.01.019m3.068,1.258h0m.135.106a.1.1,0,0,1,.01.039c0-.019-.01-.029-.01-.039m.716,1.568c0-.01,0-.01.019-.029h.01c0,.01.01.019.019.039a.4.4,0,0,0,.029.077h0a.24.24,0,0,1-.077-.087m.426-3.784h0a.268.268,0,0,0-.087.01c-.068.01-.165.029-.2.029h-.019a.165.165,0,0,0-.068-.039c-.077-.039-.106-.039-.145-.058l.058-.029c.01-.01.019-.01.029-.019h.01c.01.01.01.019.019.039a.148.148,0,0,0,.048.068.286.286,0,0,0,.1.019.3.3,0,0,0,.1-.01.272.272,0,0,1,.106-.01.215.215,0,0,1,.087.01c.019,0,.039.01.068.01v.039a.108.108,0,0,0-.1-.058m4.848,6.542c-.01.01-.01.019-.058.029h-.039a.03.03,0,0,0,.019-.01.3.3,0,0,0,.077-.019h0m.126.174h0m-4.181-6.745c-.019,0-.058-.01-.106-.01a.144.144,0,0,0-.087.019.084.084,0,0,0-.029.058.1.1,0,0,0,.087.1h.01c.039,0,.087-.019.106-.019a.35.35,0,0,0,.029.068c.019.029.039.077.106.077a.419.419,0,0,0,.048-.01.24.24,0,0,0,.087-.068.03.03,0,0,0,.01-.019q.029-.015.029-.029v-.029a.174.174,0,0,0-.068-.145.159.159,0,0,0-.1-.019l-.126.029h0m9.765,3.155a.772.772,0,0,0-.106-.01.116.116,0,0,0-.077.019.05.05,0,0,0-.019.039c0,.039.019.048.039.068a.156.156,0,0,0,.068.039c.01,0,.019.019.039.029s.029.029.058.039h.029a.092.092,0,0,0,.068-.019.073.073,0,0,0,.048-.068.058.058,0,0,0-.01-.039.138.138,0,0,0-.135-.1m9.706,2.381h0a.057.057,0,0,0-.048.019.232.232,0,0,0-.068.116.058.058,0,0,0,.01.039h0a.18.18,0,0,0-.126-.068.105.105,0,0,0-.048.01q-.029.015-.029.029a.215.215,0,0,0-.048.106.087.087,0,0,0,.01.048.075.075,0,0,0,.068.029c.039,0,.106.01.155.01h.048a.036.036,0,0,0,.029-.01c.01-.01.019-.019.019-.029a.036.036,0,0,0-.01-.029.6.6,0,0,0-.039-.058.14.14,0,0,0,.068.019h.01c.077,0,.135-.048.135-.1a.138.138,0,0,0-.135-.135m1.694,4.79a.237.237,0,0,0-.116.039.211.211,0,0,0-.048.029c-.01,0-.01.01-.019.01h0l-.106-.039a.043.043,0,0,0-.048.01c-.019.019-.039.039-.039.058,0,.039.029.058.048.077s.029.029.029.039v.01a.034.034,0,0,1-.01.019.069.069,0,0,0,.029.058c.019.01.039.01.058.019a.361.361,0,0,0,.116-.019c.029-.01.039-.029.058-.039a.516.516,0,0,0,.106-.2v-.019c0-.039-.039-.048-.058-.048m-1.665-4.5a.036.036,0,0,0-.029-.01c-.01,0-.019.01-.029.019a.727.727,0,0,1-.068.077.009.009,0,0,0-.01.01c-.01,0-.019-.01-.048-.019a.087.087,0,0,0-.048-.01.184.184,0,0,0-.126.048c-.039.029-.068.048-.068.087a.036.036,0,0,0,.01.029c.019.029.048.029.068.039a.363.363,0,0,1,.106.01c.029,0,.048.01.048.019a.323.323,0,0,0,.029.058.069.069,0,0,0,.058.029h0a.123.123,0,0,0,.058-.01.249.249,0,0,0,.126-.077.22.22,0,0,0,.058-.116v-.029a.845.845,0,0,0-.135-.155m2.013,2.894c-.048-.058-.077-.106-.068-.116h0v-.01a.088.088,0,0,0-.029-.068c-.058-.039-.135-.048-.174-.077a.262.262,0,0,1-.048-.116l-.029-.174a.856.856,0,0,0-.174-.242.574.574,0,0,1-.068-.155.246.246,0,0,1-.019-.068c0-.01-.01-.019-.01-.029a.034.034,0,0,1-.01-.019.19.19,0,0,0,.087-.087c.029-.039.058-.087.068-.1a.132.132,0,0,1,.1-.019c.019,0,.029,0,.039.01s.01,0,.01.01a.265.265,0,0,0,.155.2.621.621,0,0,0,.194.077c.019,0,.058-.01.068-.039v-.019a.379.379,0,0,0-.029-.126.188.188,0,0,0-.087-.106c-.019,0-.058-.039-.087-.077a.282.282,0,0,1-.048-.1c0-.048-.029-.068-.068-.087a.54.54,0,0,1-.077-.048c-.029-.019-.068-.145-.2-.184-.106-.019-.126-.058-.252-.116a.707.707,0,0,0-.29-.058.3.3,0,0,0-.1.01c-.01,0-.029.01-.039.01h-.01a.158.158,0,0,0-.058-.029.331.331,0,0,0-.126-.019.036.036,0,0,1-.029-.01l-.01-.01a.089.089,0,0,0-.1-.068.151.151,0,0,0-.116.058c-.01.01-.029.019-.039.029a.134.134,0,0,0-.029.039c0,.01.01.029.019.029a.235.235,0,0,0,.106.029.545.545,0,0,1,.1.019h0l-.01.01a.449.449,0,0,0-.087.135.047.047,0,0,0,.048.058h.019c.048,0,.106-.01.145-.01h0c0,.01,0,.01.01.029a.053.053,0,0,0,.048.029.545.545,0,0,0,.1.019c.145.029.145.058.184.1a.212.212,0,0,1,.039.048c.01.01.01.019.019.029a.471.471,0,0,0-.068.029c-.029.019-.048.039-.048.068s.019.048.039.048h.029c.048,0,.106-.01.135-.01h0a.243.243,0,0,0,.048.077.18.18,0,0,0,.116.087c-.01.01-.01.019-.019.029a.454.454,0,0,0-.058.2.159.159,0,0,0,.019.1c.01.01.01.019.01.039a.623.623,0,0,1-.1.223.01.01,0,0,1-.019,0c-.029-.019-.077-.058-.116-.087a2.029,2.029,0,0,1-.223-.126v-.01a.3.3,0,0,1,.039-.087c.019-.039.048-.068.048-.106a.058.058,0,0,0-.01-.039c-.029-.039-.077-.039-.126-.048a.471.471,0,0,0-.116.01c-.019,0-.029,0-.039.01h-.01l-.029-.029a.106.106,0,0,0-.087-.039.083.083,0,0,0-.058.029.138.138,0,0,0-.019.058c-.01-.019-.029-.029-.039-.048l-.019-.019c-.01,0-.01-.01-.039-.01a.082.082,0,0,0-.048.029v.058a.1.1,0,0,1-.029.068.438.438,0,0,0-.068.068c-.01.019-.01.029-.029.068a.03.03,0,0,0-.01.019h0a.151.151,0,0,1-.077-.058.147.147,0,0,0-.1-.058c-.058,0-.087.039-.106.039-.048.019-.058.068-.087.106a.558.558,0,0,1-.048.087h0a.326.326,0,0,1-.1.039.38.38,0,0,0-.126.058.221.221,0,0,0-.058.116.3.3,0,0,0-.019.077c-.019,0-.048.01-.077.01a.3.3,0,0,0-.126.029c-.01.01-.029.01-.058.01s-.068-.01-.106-.01a.156.156,0,0,0-.087.029,2.4,2.4,0,0,0-.252.155.2.2,0,0,0-.077.155.145.145,0,0,0,.019.1.228.228,0,0,1,.048.1.1.1,0,0,0-.048.1.209.209,0,0,0,.058.155c.048.058.048.077.048.1v.039a.1.1,0,0,0,.039.068.633.633,0,0,1,.068.077c.01.01.01.01.01.019s-.019.029-.058.058a.34.34,0,0,0-.1.077.036.036,0,0,0-.01.029c0,.068.068.116.106.155a.139.139,0,0,0,.106.029.452.452,0,0,0,.165-.029.592.592,0,0,0,.116-.048.193.193,0,0,1,.077-.029c.019,0,.087-.01.135-.01h.116a.073.073,0,0,0,.039-.019l.135-.165a.054.054,0,0,1,.058-.01c.029,0,.058.01.077.01a.1.1,0,0,0,.039.01h.039l.01-.01a1.547,1.547,0,0,1,.232-.068.255.255,0,0,1,.068-.01h.019a.085.085,0,0,0,.058.068,1.447,1.447,0,0,1,.194.068c.01,0,.01.01.01.029a.472.472,0,0,1-.039.106v.01a.082.082,0,0,0,.029.048.087.087,0,0,0,.048.01.213.213,0,0,0,.077-.01c.019-.01.048-.019.058-.048s.029-.048.087-.077a.058.058,0,0,1-.01.039.189.189,0,0,0,.01.068.021.021,0,0,0,.019.019.05.05,0,0,0,.039.019c.019,0,.029-.01.039-.01a.03.03,0,0,1,.01.019.076.076,0,0,0,.039.039.211.211,0,0,1,.048.029.05.05,0,0,1,.019.039c0,.039-.01.068-.01.1s0,.048.029.068.039.01.048.019c.048.01.106.019.126.068.019.029.039.058.077.058a.1.1,0,0,0,.077-.039c.01-.019.029-.029.039-.039h0a.184.184,0,0,1,.1.048.074.074,0,0,0,.048.019.2.2,0,0,0,.106-.039.486.486,0,0,1,.126-.048.514.514,0,0,0,.106-.029.08.08,0,0,0,.048-.048,1.463,1.463,0,0,1,.145-.252.931.931,0,0,0,.2-.387,1.175,1.175,0,0,0-.048-.542,1.4,1.4,0,0,1-.165-.174m-2.361-1.065a.074.074,0,0,0,.048.019h0a.237.237,0,0,0,.116-.039.212.212,0,0,0,.048-.029c.01,0,.039-.01.058-.01s.039-.01.058-.029A.065.065,0,0,0,120.6,74c0-.039-.019-.058-.048-.087a.172.172,0,0,0-.1-.039.105.105,0,0,0-.087.039c-.019.029-.058.058-.077.087a.147.147,0,0,0-.058.1v.01c-.019.019-.01.029,0,.039m-.145-.91h.019c.087-.01.271-.029.3-.029a.111.111,0,0,0,.087-.048.243.243,0,0,0,.039-.068.036.036,0,0,0-.01-.029.073.073,0,0,0-.039-.019,1.421,1.421,0,0,0-.281.048h0c-.019,0-.048-.01-.077-.01a.211.211,0,0,1-.058-.01.058.058,0,0,0-.039.01.123.123,0,0,0-.039.068.069.069,0,0,0,.029.058.075.075,0,0,0,.068.029m5.245,1.442h0c-.01,0-.019-.01-.029-.01a.184.184,0,0,0-.087.029.77.77,0,0,0-.155.145.036.036,0,0,0-.01.029.021.021,0,0,0,.019.019.087.087,0,0,0,.048.01h0a.337.337,0,0,0,.165-.058.2.2,0,0,0,.087-.116.058.058,0,0,0-.039-.048m-.416,1.916a.2.2,0,0,0-.048.01h-.019a.075.075,0,0,1-.029-.01.216.216,0,0,1-.048-.029l-.029-.058a.4.4,0,0,0-.039-.1.129.129,0,0,0-.029-.048.083.083,0,0,0-.058-.029.123.123,0,0,0-.058.01.07.07,0,0,0-.039.058.213.213,0,0,0,.039.126.455.455,0,0,0,.019.048c0,.029.01.058,0,.068v.01a.212.212,0,0,1-.048.029.1.1,0,0,0-.058.068.053.053,0,0,0,.029.048.2.2,0,0,0,.126.029h.01c-.01.019-.039.048-.039.077l-.039-.039c-.01-.01-.029-.019-.039-.029s-.019-.019-.048-.019-.048.01-.048.029a.12.12,0,0,1-.029.019.268.268,0,0,0-.087.048.709.709,0,0,0-.048.058.263.263,0,0,1-.087.068,1.2,1.2,0,0,0-.358.232.058.058,0,0,0-.01.039.093.093,0,0,0,.058.087.281.281,0,0,0,.135.029.75.75,0,0,1,.087.01h0a.1.1,0,0,0,.058-.019c.019-.01.029-.029.058-.058a1.417,1.417,0,0,1,.271-.2.286.286,0,0,0,.126-.194.073.073,0,0,0,.039.019h.029a.133.133,0,0,0,.1-.048.339.339,0,0,0,.048-.077.313.313,0,0,1,.106-.116.071.071,0,0,0,.048-.058.14.14,0,0,0-.019-.068c.019,0,.01-.019-.029-.019m-.89-1.287a.093.093,0,0,0,.087-.068l-.039-.01.039.01v-.019c.01-.058-.039-.116-.174-.145a.189.189,0,0,0-.068-.01.036.036,0,0,0-.029.01c-.01.01-.029.019-.029.039a.042.042,0,0,0,.01.029.537.537,0,0,1,.058.077.207.207,0,0,0,.145.087Zm-14.158-5.836a.111.111,0,0,0-.087.058.034.034,0,0,1-.01.019.043.043,0,0,0,.029.039.058.058,0,0,0,.039.01.088.088,0,0,0,.077-.039.036.036,0,0,0,.01-.029.058.058,0,0,0-.01-.039c-.01,0-.029-.019-.048-.019m10.2,4.065a.151.151,0,0,0,.029.1.228.228,0,0,0,.174.077h.01a.042.042,0,0,0,.039-.039.723.723,0,0,0-.01-.106.213.213,0,0,0-.087-.155c-.01-.01-.019-.01-.029-.019h.01a.286.286,0,0,0,.1-.019.073.073,0,0,0,.048-.068.036.036,0,0,0-.01-.029c-.029-.048-.077-.048-.126-.048s-.106.01-.135.01h0a.419.419,0,0,0-.048-.01.075.075,0,0,0-.029-.01.029.029,0,0,0-.039,0,.1.1,0,0,0-.068.068c-.01.029-.01.048-.019.087s-.048.077-.058.135a.084.084,0,0,0,.039.068.058.058,0,0,0,.039.01.185.185,0,0,0,.116-.048.134.134,0,0,0,.039-.029c.019.01.019.019.019.029m4.345-5.681s0-.01.019-.029c.029-.048.039-.077.068-.087s.068-.029.184-.029c.184,0,.165.01.261.01h.087a.483.483,0,0,0,.252-.068,1.186,1.186,0,0,1,.223-.087,1.717,1.717,0,0,1,.319-.068h.029a.179.179,0,0,0,.068.019.123.123,0,0,0,.058-.01.064.064,0,0,0,.039-.048A.138.138,0,0,0,126,67.4c-.019-.029-.058-.048-.077-.077l-.029-.029c.019-.01.048-.01.077-.019a.13.13,0,0,0,.087-.087.036.036,0,0,0,.01-.029c0-.068-.039-.126-.029-.174,0-.01.01-.019.01-.029a.156.156,0,0,0,.039-.068.134.134,0,0,0-.058-.106.155.155,0,0,0-.106-.048.3.3,0,0,0-.1-.01H125.6a.858.858,0,0,1-.126-.01.411.411,0,0,0-.184-.058.071.071,0,0,0-.058.019.263.263,0,0,0-.077.1c-.01.019-.029.039-.029.048s-.019-.01-.039-.039c-.029-.048-.1-.058-.165-.068a1.433,1.433,0,0,0-.194-.01h-.058a2.4,2.4,0,0,0-.261.029.521.521,0,0,1-.106.01c-.019,0-.029,0-.058-.029-.068-.058-.165-.087-.174-.106a.1.1,0,0,0-.077-.019h-.106a1.3,1.3,0,0,0-.194.01c-.116.01-.223.019-.252.019-.01,0-.019-.01-.029-.01a.62.62,0,0,1-.106-.058c-.048-.029-.1-.048-.135-.068a.221.221,0,0,0-.106-.029c-.029,0-.145.019-.232.019a.367.367,0,0,1-.077-.01.249.249,0,0,0-.155-.068c.039-.01.077-.019.126-.029.068-.019.116-.029.116-.029s.019-.01.029-.019v-.029a.38.38,0,0,0-.039-.048.172.172,0,0,0-.126-.058.9.9,0,0,1-.135-.019.666.666,0,0,0-.126-.019.105.105,0,0,0-.048.01l-.019.019h-.019a.871.871,0,0,0-.155-.029.182.182,0,0,0-.077.019.6.6,0,0,0-.058.039c-.019.019-.048.029-.058.068a.066.066,0,0,0,.068.068.6.6,0,0,0,.174.019c.048,0,.068.01.058.01a.036.036,0,0,1,.01.029c0,.01-.019.029-.019.058a.166.166,0,0,1-.039.058.2.2,0,0,1-.048.048h0a.343.343,0,0,0-.068-.01.426.426,0,0,0-.1.019.5.5,0,0,1-.155.019h-.1a.073.073,0,0,0-.039.01c-.01,0-.01-.01-.019-.019s-.029-.029-.068-.029a.036.036,0,0,0-.029.01.3.3,0,0,0-.1.068c-.039.029-.077.048-.077.039a.114.114,0,0,1-.087-.1.363.363,0,0,0-.01-.106c-.01-.029-.01-.058-.039-.077a.073.073,0,0,0-.039-.01.941.941,0,0,0-.174-.01h-.077a1.326,1.326,0,0,0-.155.019c-.029.01-.068.01-.087.019s-.048.01-.068.029a.322.322,0,0,1-.145.048.252.252,0,0,1-.068-.029.359.359,0,0,0-.145-.048c-.087-.01-.252-.019-.339-.019a.166.166,0,0,0-.077.01h0a.036.036,0,0,1-.029-.01.257.257,0,0,0,.058-.048.168.168,0,0,0,.058-.106.1.1,0,0,0-.029-.068.757.757,0,0,0-.31-.058.834.834,0,0,0-.165-.01.363.363,0,0,0-.1.01.392.392,0,0,0-.1.029h-.01a.009.009,0,0,0-.01-.01l-.01-.01c-.01-.01-.029-.01-.068-.029a.627.627,0,0,0-.223-.058.243.243,0,0,0-.1.019c-.01.01-.019.01-.029.019s0,.01-.01.01a.427.427,0,0,0-.077.029c-.126.048-.194.068-.223.077h0c-.01,0-.068-.01-.116-.019-.019-.01-.048-.01-.068-.019a.034.034,0,0,1-.019-.01h-.01a.087.087,0,0,0-.048-.01.519.519,0,0,0-.184.048.84.84,0,0,1-.165.068h-.019a.511.511,0,0,0-.126-.01.563.563,0,0,0-.184.029.7.7,0,0,0-.223.1.44.44,0,0,1-.135.058.3.3,0,0,1-.077.019c-.029,0-.135-.01-.194-.01h-.087c-.01,0-.029.01-.039.01a.068.068,0,0,0-.039.048.084.084,0,0,0,.029.058.589.589,0,0,0,.155.087h0c-.01-.01-.029-.01-.048-.019a.224.224,0,0,0-.087-.019c-.01,0-.019-.01-.058-.048a.225.225,0,0,0-.145-.068.16.16,0,0,0-.116.048.18.18,0,0,0-.039.106.042.042,0,0,1-.01.029.105.105,0,0,1-.048.01v-.106a.087.087,0,0,0-.01-.048c0-.01-.01-.01-.01-.019a.05.05,0,0,0-.039-.019c-.039,0-.048.019-.068.039a.579.579,0,0,1-.058.068.088.088,0,0,0-.029.068c0,.058.029.077.029.126v.019a.282.282,0,0,0-.019.087v.039q0,.015.029.029l-.135.135a.212.212,0,0,1-.077.029c-.01,0-.019.01-.039.01a.4.4,0,0,1,.077-.058.241.241,0,0,0,.116-.165.058.058,0,0,0-.01-.039.354.354,0,0,1-.019-.155v-.019c0-.019.048-.048.048-.1a.1.1,0,0,0-.048-.077,1.283,1.283,0,0,0-.194-.116c-.01,0-.019-.01-.029-.01a.159.159,0,0,0-.116.068.423.423,0,0,1-.077.068c-.039.019-.048.048-.068.058s-.01.01-.039.019a.123.123,0,0,0-.106.106.142.142,0,0,0,.087.116c.039.019.068.039.087.048l.019.019h-.01c-.019,0-.048-.01-.068-.01a.1.1,0,0,0-.039-.01.422.422,0,0,0-.174-.048c-.048,0-.116-.039-.194-.048h-.077a.274.274,0,0,0-.174.039l-.058.058a.107.107,0,0,1-.058.029h-.01c-.019-.01-.029-.019-.048-.029a.113.113,0,0,0-.068-.019.179.179,0,0,0-.068.019.087.087,0,0,1-.048.01c-.029,0-.058-.01-.1-.01a.135.135,0,0,0-.087.029c-.01.01-.01.019-.019.019s-.039-.019-.087-.029a.359.359,0,0,0-.087-.019.129.129,0,0,0-.1.039.146.146,0,0,1-.087.039.241.241,0,0,1-.077.01c-.039,0-.077-.01-.116-.01a.139.139,0,0,0-.1.039c-.01.019-.029.029-.039.048,0-.01.01-.019.01-.029.01-.029.029-.048.029-.077a.063.063,0,0,0-.019-.048.151.151,0,0,0-.116-.029.24.24,0,0,0-.087.01.253.253,0,0,0-.077.029c-.019.019-.019.048-.029.068a.348.348,0,0,0,.019.106v.019c-.01-.01-.029-.029-.048-.019h-.019a.138.138,0,0,0-.058.019.036.036,0,0,0,.01-.029c0-.029-.029-.048-.048-.058a.7.7,0,0,0-.252-.077,1.955,1.955,0,0,1-.406-.077c-.165-.058-.194-.087-.271-.106a3.985,3.985,0,0,0-.561-.058.511.511,0,0,0-.126.01c-.1.019-.281.058-.435.106-.077.019-.155.039-.213.058a.246.246,0,0,1-.068.019c-.019.01-.029.01-.048.019s-.039.048-.068.087a1.16,1.16,0,0,1-.106.116,1.316,1.316,0,0,1-.416.281.775.775,0,0,0-.223.1.537.537,0,0,0-.077.058c-.019.019-.039.029-.039.058a.283.283,0,0,0,.019.087.394.394,0,0,1,.019.068c0,.01-.01.019-.01.029a.187.187,0,0,0,.029.1.173.173,0,0,0,.1.087.286.286,0,0,0,.126.019h.058a.141.141,0,0,0-.087.058.315.315,0,0,0-.039.126.082.082,0,0,0,.019.068c.01.01.019.019.019.029-.029,0-.048-.01-.077-.01a.252.252,0,0,0-.145.039c-.048.039-.135.116-.165.135-.019,0-.048.01-.087.01-.01,0-.029.01-.039.01v-.01a.294.294,0,0,0-.165-.194.362.362,0,0,1-.087-.087.514.514,0,0,0-.087-.106h0c0-.01.019-.048.029-.1a.179.179,0,0,0-.019-.068.228.228,0,0,0-.087-.058.471.471,0,0,1-.068-.029.179.179,0,0,0-.068-.019.171.171,0,0,0-.135.087h0a.343.343,0,0,0-.068-.01.036.036,0,0,0-.029.01.1.1,0,0,0-.068.087.2.2,0,0,0,.029.106.134.134,0,0,1,.029.039h-.077a.184.184,0,0,0-.1.058l-.019.019h0a.13.13,0,0,0-.077.019.073.073,0,0,0-.048.068v.029c.01.039.019.068.019.077h0a.06.06,0,0,0-.039.058.11.11,0,0,0,.029.077.211.211,0,0,0,.077.048h.019a.456.456,0,0,0,.184-.068c.058-.029.145-.077.155-.165a.363.363,0,0,0-.01-.106c.01,0,.01.01.019.01l.019-.029-.019.029c.039.01.077.029.116.039a.034.034,0,0,1,.019.01.532.532,0,0,0-.087.068.706.706,0,0,0-.087.1v.019c0,.048.048.068.077.087a.036.036,0,0,0,.029.01c0,.01-.01.019-.01.029a.049.049,0,0,0,.039.048c.01,0,.019.01.029.01.048,0,.058-.029.077-.039s.029-.019.039-.019c.048,0,.155.029.223.039-.058.01-.116.019-.165.029a.325.325,0,0,0-.1.039.15.15,0,0,1-.077.019.182.182,0,0,0-.077.019.079.079,0,0,0-.048.048.082.082,0,0,0,.029.048.138.138,0,0,0,.058.019,1.271,1.271,0,0,1,.145.048.106.106,0,0,1,.068.068v.029a.326.326,0,0,1-.048.165h0a.117.117,0,0,1-.048.01c-.048,0-.126-.01-.184-.01s-.155-.01-.242-.01a.227.227,0,0,0-.116.019c-.068.029-.077.1-.087.165a.571.571,0,0,0,.019.135c0,.01.01.029.01.039a.083.083,0,0,1-.029.058.105.105,0,0,0-.039.087.118.118,0,0,0,.039.087.149.149,0,0,1,.039.058c.019.019.029.048.068.058h.019c.029,0,.058-.01.087-.01s.029.01.039.01a.208.208,0,0,1,.039.068c.01.01.019.019.019.029h-.01a1.416,1.416,0,0,0-.126.087c-.019.01-.029.029-.048.029a.009.009,0,0,0-.01.01.05.05,0,0,0-.039.019.382.382,0,0,0-.126.174.369.369,0,0,0-.029.165c-.01.048-.01.058-.029.068a1.19,1.19,0,0,0-.3.184.769.769,0,0,0-.106.184c-.039.068-.077.145-.106.194a.18.18,0,0,0-.039.106,1.046,1.046,0,0,0,.039.165.33.33,0,0,1,.019.145.186.186,0,0,1-.039.116.736.736,0,0,0-.077.126c-.01.01-.01.019-.019.029h0c-.01,0-.01,0-.019.01s-.019.019-.019.029a.042.042,0,0,0,.01.029.153.153,0,0,1,.048.077V71.9a.427.427,0,0,1-.019.1.144.144,0,0,0,.1.135c.135.068.184.116.213.2a.864.864,0,0,0,.223.252s.126.116.194.174c.029.019.048.039.077.039a.083.083,0,0,0,.058-.029c.01-.019.019-.029.019-.048s.01-.019.039-.029a.473.473,0,0,1,.126-.01,1.592,1.592,0,0,1,.2.019.213.213,0,0,0,.077-.01,1.034,1.034,0,0,0,.252-.1.414.414,0,0,1,.165-.058.071.071,0,0,1,.058.019.2.2,0,0,1,.068.087.333.333,0,0,0,.048.106.124.124,0,0,0,.1.039.275.275,0,0,0,.165-.068c.01-.01.019-.01.019-.019.01.01.029.019.048.039.048.029.068.048.068.058s-.01.019-.029.048a.225.225,0,0,0-.068.145.772.772,0,0,1-.029.145.216.216,0,0,0-.029.1.1.1,0,0,0,.019.058.2.2,0,0,0,.058.039.613.613,0,0,1,.126.174,1.988,1.988,0,0,0,.116.194c.01.01.01.029.01.058s-.01.068-.01.106a.286.286,0,0,0,.019.126c.039.058.068.106.058.135,0,.01,0,.01-.01.019a.453.453,0,0,0-.194.29v.039a.633.633,0,0,0,.048.281c.029.048.1.194.126.252a.593.593,0,0,1,.068.242v.039a.268.268,0,0,1-.01.087.246.246,0,0,0,.019.116.886.886,0,0,0,.116.174.278.278,0,0,1,.058.106c.01.039.019.068.019.068v.01a.075.075,0,0,0,.01.029.215.215,0,0,1,.01.087.191.191,0,0,0,.019.106.165.165,0,0,0,.077.087.275.275,0,0,0,.116.039h0a.105.105,0,0,0,.087-.039.034.034,0,0,1,.019-.01,1,1,0,0,1,.194-.019h.087a.558.558,0,0,0,.31-.116,2.178,2.178,0,0,0,.3-.29.9.9,0,0,0,.1-.1.271.271,0,0,0,.077-.116V75.49a.491.491,0,0,1-.019-.087c0-.019,0-.019.019-.029s.077-.039.126-.058.087-.048.106-.1v-.01a1.024,1.024,0,0,0-.058-.271h0a.432.432,0,0,1,.1-.145.294.294,0,0,1,.135-.077.666.666,0,0,0,.077-.029.322.322,0,0,0,.058-.029.642.642,0,0,0,.145-.271c0-.019.01-.029.01-.048,0-.068-.01-.126-.01-.174,0-.019.01-.029.01-.039a.138.138,0,0,0,.019-.058.2.2,0,0,0-.077-.135.322.322,0,0,1-.039-.126v-.077a.123.123,0,0,0-.01-.058.047.047,0,0,1,0-.039.283.283,0,0,1,.019-.087c0-.01.01-.019.01-.029h0a.2.2,0,0,0,.058-.039c.058-.058.126-.155.174-.2.029-.029.1-.106.155-.165a.7.7,0,0,1,.145-.116.388.388,0,0,0,.165-.087.3.3,0,0,0,.1-.135.809.809,0,0,1,.116-.184l.087-.116a.872.872,0,0,0,.048-.087.523.523,0,0,1,.039-.116.465.465,0,0,0,.039-.145.123.123,0,0,0-.01-.058.1.1,0,0,0-.068-.029,1.092,1.092,0,0,0-.348.1.5.5,0,0,1-.223.068h-.019c-.029,0-.029-.01-.039-.01a.042.042,0,0,1-.01-.029c0-.019.01-.048.01-.068v-.01a.138.138,0,0,0-.019-.058.009.009,0,0,1,.01.01.105.105,0,0,0,.048.01.537.537,0,0,0,.165-.029c.058-.019.1-.029.126-.039a1.533,1.533,0,0,1,.358-.145.215.215,0,0,0,.126-.048.272.272,0,0,1,.106-.048.745.745,0,0,0,.3-.174,1.623,1.623,0,0,0,.223-.271c.019-.029.077-.068.087-.135a.087.087,0,0,0-.01-.048.5.5,0,0,0-.126-.116.9.9,0,0,0-.145-.068l-.01-.01c-.01-.01-.01-.029-.019-.048s-.01-.019-.01-.029a.082.082,0,0,0-.048-.029.074.074,0,0,0-.048.019c-.029.029-.029.048-.077.077a1.021,1.021,0,0,0-.106.068.168.168,0,0,1-.068.029v-.01a.148.148,0,0,0-.048-.106c-.039-.039-.068-.058-.077-.068s-.019-.019-.01-.039a.088.088,0,0,0-.029-.068c-.048-.058-.135-.135-.135-.165v-.01c0-.019.019-.039.039-.058a.088.088,0,0,1,.048-.029h0a.421.421,0,0,0,.165.242.549.549,0,0,1,.126.077.291.291,0,0,0,.106.058h.029a.237.237,0,0,0,.116-.039c.019-.01.029-.019.048-.019s.01,0,.019-.01a.784.784,0,0,1,.058.077.257.257,0,0,0,.106.1.813.813,0,0,0,.184.029,1.141,1.141,0,0,0,.155.01h.048a.555.555,0,0,0,.116-.01.215.215,0,0,0,.106-.048q.015-.029.029-.029h.019c.01.01.029.039.058.068s.048.068.087.087.068.01.087.019.029.01.029.048v.029a.309.309,0,0,0,.029.135.133.133,0,0,0,.1.077h.01a.227.227,0,0,0,.135-.068.868.868,0,0,1-.019.174v.01a1.689,1.689,0,0,0,.068.319h0s.1.232.126.29a1.468,1.468,0,0,0,.087.135.592.592,0,0,1,.058.126.471.471,0,0,0,.01.116.137.137,0,0,0,.019.058.089.089,0,0,0,.058.039c.039,0,.048-.019.068-.029.039-.048.077-.126.126-.184l.019-.019c-.01.01-.01.029-.019.048-.01.039-.019.077-.029.126a.24.24,0,0,0,.01.087c.01.029.019.058.058.068.01,0,.029.01.039.01a.131.131,0,0,0,.106-.058.2.2,0,0,0,.039-.1.073.073,0,0,0-.01-.048.292.292,0,0,1-.029-.087c-.01-.019-.01-.039-.029-.058a.07.07,0,0,0-.068-.039.058.058,0,0,0-.039.01h0a.134.134,0,0,0-.039.029,1.573,1.573,0,0,0,.1-.242,1.063,1.063,0,0,0,.039-.271c0-.039.029-.068.135-.116a1.586,1.586,0,0,0,.3-.252c.058-.039.077-.087.116-.126a.161.161,0,0,1,.135-.048.649.649,0,0,0,.165-.01.153.153,0,0,0,.077-.048c.01-.01.029-.019.029-.029h0a.034.034,0,0,1,.01.019.419.419,0,0,0,.087.155.757.757,0,0,1,.077.1.3.3,0,0,1,.048.165v.068a.472.472,0,0,0,.01.116c0,.019.01.029.019.048a.083.083,0,0,0,.058.029c.039,0,.048-.019.068-.029a.6.6,0,0,0,.087-.106c.01,0,.019-.01.029-.019a.2.2,0,0,1,.058-.019v.029a.123.123,0,0,1-.01.058,2.486,2.486,0,0,0,0,.271.321.321,0,0,0,.048.155c.01.019.019.029.029.048h-.01a.076.076,0,0,0-.068.048.179.179,0,0,0-.019.068.174.174,0,0,0,.019.1.223.223,0,0,0,.068.048c.019.01.029.029.048.1a1.4,1.4,0,0,0,.126.339.307.307,0,0,0,.1.1.471.471,0,0,1,.1.077.071.071,0,0,0,.058.019.105.105,0,0,0,.106-.087.058.058,0,0,0-.01-.039c-.029-.048-.087-.116-.087-.155a.729.729,0,0,0-.1-.242c-.058-.1-.116-.126-.135-.174a.723.723,0,0,0-.116-.135.073.073,0,0,0,.039-.019.03.03,0,0,0,.01-.019.794.794,0,0,1,.039-.106.359.359,0,0,0,.039-.135c.019.01.039.029.068.048a.607.607,0,0,1,.106.116.242.242,0,0,1,.039.077l.01.01.048.048c.019.029.048.058.048.068a.06.06,0,0,0,.058.039.163.163,0,0,0,.1-.029.153.153,0,0,0,.068-.068c.029-.048.029-.048.077-.068a.6.6,0,0,0,.106-.029.189.189,0,0,0,.1-.1.458.458,0,0,0,.058-.184.273.273,0,0,0-.039-.145,1.646,1.646,0,0,0-.194-.252.288.288,0,0,1-.068-.106.138.138,0,0,1-.019-.058c.039-.039.145-.126.184-.165a.03.03,0,0,1,.019-.01.031.031,0,0,1,.029.029h0c0,.01-.01.029-.039.068a.355.355,0,0,0-.058.135v.029a.121.121,0,0,0,.116.145.088.088,0,0,0,.068-.029.34.34,0,0,0,.068-.087c.01-.019.029-.029.039-.048s.019-.019.019-.039a.05.05,0,0,0-.019-.039c-.019-.019-.029-.01-.039-.068v-.01a.08.08,0,0,1,.039-.058.063.063,0,0,1,.048-.019.123.123,0,0,0,.058.01,1.315,1.315,0,0,0,.4-.1c.135-.068.213-.2.281-.252a1.447,1.447,0,0,0,.184-.145c.068-.068.135-.126.145-.194v-.01a.768.768,0,0,0-.029-.319A1.48,1.48,0,0,0,120.29,70a.231.231,0,0,1,.068-.029.885.885,0,0,0,.135-.068.134.134,0,0,0,.048-.087.091.091,0,0,0-.1-.1h-.019a.747.747,0,0,1-.145.019h-.01c-.01,0-.039-.029-.1-.087-.01-.01-.01-.01-.01-.019s.01-.019.019-.029l.01-.01h.01a.248.248,0,0,0,.116-.048.837.837,0,0,0,.1-.068.282.282,0,0,0-.019.087.087.087,0,0,0,.01.048.053.053,0,0,0,.048.029h.01a.428.428,0,0,0,.155-.058.3.3,0,0,0,.058-.039h0a.1.1,0,0,1,.01.077c0,.01,0,.019-.01.019a.307.307,0,0,0-.029.087v.039a.053.053,0,0,0,.048.039h.01a.421.421,0,0,0,.068-.039l.01-.01a.1.1,0,0,1,.039.068.073.073,0,0,1-.01.039c-.019.048-.068.077-.077.135a.091.091,0,0,0,.058.077.163.163,0,0,0,.1.029.286.286,0,0,0,.145-.058.331.331,0,0,0,.126-.232.189.189,0,0,0-.01-.077,1.022,1.022,0,0,1-.068-.106c-.019-.029-.029-.058-.039-.068a.666.666,0,0,1,.077-.029c.029-.01.077-.039.077-.077s.048-.087.1-.106a.211.211,0,0,0,.087-.068c.01-.01.019-.019.029-.019s.029.019.048.029a.286.286,0,0,0,.1.019.161.161,0,0,0,.106-.039c.039-.039.252-.213.387-.31a.619.619,0,0,0,.242-.329c.01-.029.029-.058.039-.087v.029a.073.073,0,0,1-.01.048c0,.029-.01.058-.01.087,0,.048-.01.1-.01.135V68.9c0,.019,0,.029.01.039s.029.029.048.048a.118.118,0,0,0,.087.029.036.036,0,0,0,.029-.01c.039-.019.039-.048.048-.068a.434.434,0,0,0-.01-.106.255.255,0,0,1-.01-.068l.01-.01a.129.129,0,0,1,.058-.048c.029-.01.039-.019.039-.029a.036.036,0,0,0,.01-.029.393.393,0,0,0-.039-.184c-.019-.029-.029-.048-.048-.058h0l.029-.029a.084.084,0,0,0,.029-.058.039.039,0,0,0-.019-.039.075.075,0,0,0-.01-.029.049.049,0,0,0-.058-.039.036.036,0,0,0-.029.01.362.362,0,0,0-.077.01c-.01,0-.029.01-.039.01a.151.151,0,0,0-.126-.068h-.019c-.087.01-.126.048-.174.048v-.01a.058.058,0,0,1,.01-.039v-.029c0-.01-.019-.029-.048-.029a.057.057,0,0,0-.048.019c-.019.01-.029.029-.048.039l-.01.01.01-.01a.568.568,0,0,1,.2-.1,1.427,1.427,0,0,0,.242-.155,1.027,1.027,0,0,0,.106-.087.274.274,0,0,1,.058-.029h.039c.077,0,.2.01.329.01h.077c.145-.01.232-.058.252-.048h.01a.484.484,0,0,0,.242.087h.019a.1.1,0,0,0,.077-.019c.019-.01.039-.029.1-.068a1.506,1.506,0,0,0,.29-.194.3.3,0,0,1,.135-.068h.01v.058a.123.123,0,0,0,.01.058.087.087,0,0,0,.077.039h.019a.555.555,0,0,1-.068.039c-.029.019-.106.039-.174.068a.614.614,0,0,0-.2.116c-.077.087-.135.126-.145.232v.019c0,.1.077.2.068.271a.05.05,0,0,1-.019.039,1.407,1.407,0,0,0-.116.242.05.05,0,0,0,.019.039.035.035,0,0,0,.048-.019s.029-.029.068-.077a1.229,1.229,0,0,1,.165-.135,1.371,1.371,0,0,0,.29-.261.325.325,0,0,1,.1-.039c.019-.01.048-.019.068-.029a.142.142,0,0,0,.048-.058.842.842,0,0,1,.077-.184c.01-.01.01-.019.01-.039a.42.42,0,0,0-.01-.048l-.01.019M113,67.2a.853.853,0,0,0,.2-.029.1.1,0,0,0-.019.068v.039a.105.105,0,0,1-.048.01.075.075,0,0,1-.058-.029.135.135,0,0,0-.087-.039.074.074,0,0,0-.048.019l-.01.01a.185.185,0,0,1-.077.029h0v-.048a.165.165,0,0,0-.01-.068A.264.264,0,0,0,113,67.2m-.581.416c.01-.019.01-.019.029-.019a.154.154,0,0,1,.077.029l.029.029a.009.009,0,0,0,.01.01h-.019a.228.228,0,0,1-.077-.019c-.039-.01-.048-.019-.048-.029h0l-.039-.01Zm-.281,1.6a.666.666,0,0,0,.165-.194c.039-.058.068-.058.087-.058h.01a.308.308,0,0,1,.058.077c.019.039.048.077.058.1a.08.08,0,0,0,.058.039.11.11,0,0,0,.077-.029.211.211,0,0,0,.048-.029.234.234,0,0,0,.106-.126.12.12,0,0,1,.029-.019.073.073,0,0,1,.048-.01.034.034,0,0,0-.019.01c-.01,0-.019.01-.039.019a.05.05,0,0,0-.019.039c0,.029.019.039.039.058a.57.57,0,0,1,.077.039,2.188,2.188,0,0,1,.252.165.122.122,0,0,1,.068.1c0,.019-.01.019-.01.019a1.664,1.664,0,0,1-.252.019h-.039c-.048,0-.126-.068-.242-.1a.3.3,0,0,0-.1-.01.25.25,0,0,0-.2.068c0,.01-.039.019-.087.019s-.077-.01-.116-.01a.284.284,0,0,0-.1.029c0-.019.01-.039.01-.058a.088.088,0,0,0-.029-.077c-.01-.01.029-.058.058-.077m-.561-1.819a.22.22,0,0,0,.077-.135v-.039h.019c.058,0,.106-.01.155-.01h.058a.417.417,0,0,1-.1.068,1.081,1.081,0,0,1-.174.1c-.029.01-.039.01-.039.019h0m-1.035.513a.378.378,0,0,1,.039-.048l.019-.019c.01.039.019.068.029.106a.285.285,0,0,1,.029.087v.01a.058.058,0,0,0-.01.039.071.071,0,0,0,.019.058.075.075,0,0,0,.068.029h.019c.058-.01.339-.068.339-.068h.01s.1-.039.106-.116v-.029a.126.126,0,0,1,.048-.068.437.437,0,0,0,.068-.068.17.17,0,0,0,.068-.116.1.1,0,0,0-.068-.087.667.667,0,0,1-.077-.029.009.009,0,0,1-.01-.01l.01-.01.039-.039a.152.152,0,0,1,.126-.039.309.309,0,0,0,.155-.058.154.154,0,0,0-.029.077.163.163,0,0,0,.029.1c.01.01.019.048.039.077s.019.029.029.048a.111.111,0,0,0,.068.029h.019c.077-.019.155-.068.2-.058H112c.068,0,.155-.01.184-.01l.029.029c.01.01.01.019.019.029-.048.01-.126,0-.242.01-.068,0-.126.01-.184.01a.143.143,0,0,0-.068.01.036.036,0,0,0-.029.01.043.043,0,0,0-.029.039c0,.019.01.029.019.029a.54.54,0,0,0,.077.048c.01.01.019.01.029.019h-.019c-.029,0-.077-.019-.135-.029h-.01a.16.16,0,0,0-.126.077.394.394,0,0,0-.058.106.105.105,0,0,0-.01.048v.068a.03.03,0,0,1-.019-.01.482.482,0,0,0-.184-.039.1.1,0,0,0-.077.019,1.335,1.335,0,0,1-.194.068h-.019a.174.174,0,0,0-.106-.048h-.116l-.039.01a.115.115,0,0,1-.039-.068v-.01a.344.344,0,0,1,.019-.1.065.065,0,0,0-.039-.068.087.087,0,0,0-.048-.01.189.189,0,0,0-.068.01c0-.01.019-.019.029-.048m.7,1.577a1.706,1.706,0,0,0-.194-.126.374.374,0,0,1-.174-.135.457.457,0,0,0-.1-.1c-.029-.019-.039-.039-.039-.048h0v-.01h0a.212.212,0,0,1,.1.058c.068.068.213.155.252.2.058.058.135.087.145.135a.03.03,0,0,0,.01.019m-1.49-.89h0c-.01.019-.01.019-.029.019H109.7a.074.074,0,0,0,.048-.019m2.574,4.655a.212.212,0,0,1-.039.048c-.01.01-.01.01-.019.01h0a.034.034,0,0,1-.01-.019c0-.01-.01-.029,0-.048a.525.525,0,0,1,.019-.106h0c.01-.01.039-.01.068-.01h.029v.01a.268.268,0,0,1-.048.116m.174-2.932c-.01,0-.01.01,0,0-.01.01-.01.01-.029.01a.241.241,0,0,0-.077.01.139.139,0,0,0-.1-.058h-.029c-.039.01-.1.019-.155.039V70.3a.036.036,0,0,0-.01-.029c-.019-.029-.048-.029-.077-.039s-.068-.01-.1-.01h-.155a1.389,1.389,0,0,1-.242-.077H111.5a.272.272,0,0,0-.145.058.666.666,0,0,0-.126.106c-.029.029-.039.029-.058.029a.723.723,0,0,0-.106-.019.474.474,0,0,1-.1-.039.293.293,0,0,1-.068-.048l-.01-.01a.575.575,0,0,1-.068-.029.48.48,0,0,0-.126-.029.075.075,0,0,1-.029-.01.891.891,0,0,1-.077-.048c-.01-.01-.029-.019-.039-.029s-.019-.01-.039-.01c0,0-.019-.01-.019-.019a.03.03,0,0,1-.01-.019h0c.01-.01.019-.01.048-.01a.039.039,0,0,0,.039-.019c.019-.01.019-.029.019-.048a.632.632,0,0,0-.019-.106.2.2,0,0,0-.184-.155.259.259,0,0,0-.106.019h-.01a1.96,1.96,0,0,1-.271.01h-.155c-.019,0-.039.01-.068.01a1.766,1.766,0,0,0-.271.1c-.058.029-.174.058-.213.077h-.01c-.029,0-.087-.01-.145-.01a.073.073,0,0,0,.019-.039.034.034,0,0,1,.01-.019.087.087,0,0,0,.048.01c.058,0,.116-.019.155-.019a.22.22,0,0,0,.106-.058.486.486,0,0,1,.077-.068.133.133,0,0,0,.039-.029.048.048,0,0,0,0-.077c-.01-.01-.01-.019-.019-.019h0a.215.215,0,0,1,.039-.048.682.682,0,0,1,.087-.068.113.113,0,0,1,.068-.019.123.123,0,0,0,.058-.01.117.117,0,0,0,.048-.048c.01-.029.019-.077.029-.106s.01-.029.019-.029h0a.941.941,0,0,0,.194.048.285.285,0,0,0,.126-.048.435.435,0,0,0,.087-.058h.019a.072.072,0,0,1,.048.01c.019.01.019.019.029.029a.271.271,0,0,0,.087.126.354.354,0,0,0,.1.068c.019.01.077.029.126.048a.667.667,0,0,1,.077.029l.039.019a.293.293,0,0,1,.068.135.092.092,0,0,0,.077.077.083.083,0,0,0,.077-.068v-.019c0-.039-.01-.077-.01-.1h.01a.319.319,0,0,0,.106-.019c.01,0,.019-.019.019-.029h0a.539.539,0,0,0,.087.126.593.593,0,0,1,.048.106.785.785,0,0,0,.058.126c.01.019.039.039.058.029a.251.251,0,0,0,.135-.058c.01-.01.039-.019.068-.039a.154.154,0,0,0,.068-.087v-.01a.114.114,0,0,0-.058-.1c-.01-.01-.029-.019-.039-.029.01,0,.01-.01.019-.01a.243.243,0,0,0,.068-.039.243.243,0,0,1,.077-.048h0a.369.369,0,0,1,.01.126v.077a.123.123,0,0,0,.01.058.1.1,0,0,0,.048.039c.029.019.058.029.087.048s.058.029.058.039a.2.2,0,0,0,.165.058.082.082,0,0,0,.068-.019h0a.678.678,0,0,1,.135.029h.029a1.09,1.09,0,0,0,.174-.029.381.381,0,0,1,.058-.019V69.9a.622.622,0,0,1-.106.31.514.514,0,0,1-.029.106m.677,1.548c-.019-.019-.019-.029-.048-.048h0c-.01,0-.039-.029-.058-.058a.651.651,0,0,1-.068-.106.841.841,0,0,0-.135-.281c-.048-.058-.077-.223-.135-.329s-.1-.242-.145-.339c-.01-.01-.01-.029-.019-.039a.359.359,0,0,1,.087-.019h.01a2.522,2.522,0,0,1,.1.242c0,.048.048.077.068.087s.029.01.029.039a.718.718,0,0,0,.039.174.667.667,0,0,0,.029.077.2.2,0,0,0,.039.058l.087.087c.039.039.077.077.077.1a.642.642,0,0,1,.058.213c.01.058.019.126.029.184a.036.036,0,0,0,.01.029c-.019-.029-.039-.048-.048-.068m.842-2.661a.035.035,0,0,0,.048.019h.039a.3.3,0,0,1,.077.116.2.2,0,0,0,.077.058c.019.01.029.01.039.019l-.029.029c-.019.019-.039.029-.039.068a.053.053,0,0,0,.029.048c.019.01.039.068.048.126a1.017,1.017,0,0,1,.019.126c-.01,0-.029.019-.058.019a.329.329,0,0,1-.1.01h-.019c-.039-.01-.194-.058-.252-.077a.161.161,0,0,1-.019-.106c0-.01,0-.029.01-.029h.019A.135.135,0,0,0,114,69.6a.484.484,0,0,0,.077-.068.069.069,0,0,0,.029-.058.065.065,0,0,0-.039-.058.482.482,0,0,0-.165-.058h0a1.213,1.213,0,0,1-.087-.1c-.029-.048-.058-.1-.077-.126-.01-.01-.01-.019-.01-.039a.169.169,0,0,1,.087-.126h.01c.029,0,.087.019.145.019a.13.13,0,0,0,.077-.019l.145-.1a.435.435,0,0,1,.077.019.286.286,0,0,1,.058.029.339.339,0,0,0,.048.077c.01.01.019.019.019.029h0a.24.24,0,0,1-.087.01c-.029,0-.058-.01-.058-.019a.11.11,0,0,0-.077-.029.174.174,0,0,0-.165.145v.019a.073.073,0,0,0,.01.048m2.642-2.274a.165.165,0,0,1-.068.01c-.039,0-.058-.01-.058-.019a.084.084,0,0,0-.077-.058c.01,0,.01,0,.019-.01a.764.764,0,0,1,.126-.029h.019v.01a.113.113,0,0,0,.019.068c.019.019.019.029.019.029h0m.494-.174h0c-.01,0-.01.01-.019.01s-.019,0-.019-.039,0-.068-.029-.087c-.01-.01-.029-.019-.039-.029a.321.321,0,0,1,.058.029.034.034,0,0,1,.019.01h0a.118.118,0,0,1,.019.087l.01.019m-6.774,2.642a.119.119,0,0,0-.1.048.156.156,0,0,0-.029.087.08.08,0,0,0,.029.077.119.119,0,0,0,.077.039.131.131,0,0,0,.106-.068l-.029-.019.029.019a.164.164,0,0,0,.019-.048.156.156,0,0,0-.029-.087.086.086,0,0,0-.077-.048m-2.952-2.855h.029c.039,0,.087.01.126.01a.165.165,0,0,0,.068-.01.081.081,0,0,0,.039-.068v-.01h0v-.048a.272.272,0,0,1,.029-.145c.01-.01.019-.029.039-.039s.029-.019.039-.058c0-.019-.01-.039-.029-.039a.073.073,0,0,0-.039-.01h-.019a.12.12,0,0,1-.019-.029c0-.01-.01-.019-.01-.029a.14.14,0,0,1,.068-.1c.019-.019.077-.077.145-.135a.687.687,0,0,1,.184-.126c.087-.029.165-.1.165-.174a.073.073,0,0,0-.048-.068.473.473,0,0,0-.184-.039.263.263,0,0,0-.165.058c-.048.039-.077.077-.106.1a.174.174,0,0,1-.087.039h-.029c-.039-.01-.058-.039-.087-.077a.38.38,0,0,0-.077-.135.411.411,0,0,1-.048-.165.283.283,0,0,0-.019-.087.084.084,0,0,0-.077-.058h-.019c-.058.01-.077.01-.087.019s-.068-.01-.116-.01a.165.165,0,0,0-.068.01.45.45,0,0,0-.087.029v-.01c0-.029-.019-.039-.039-.048s-.029-.01-.048-.019c-.106-.01-.281-.058-.426-.068h-.029a1.872,1.872,0,0,0-.261.039.869.869,0,0,0-.435.077.339.339,0,0,1-.135.058.123.123,0,0,1-.058.01c-.01,0-.01,0-.019.01s-.01,0-.029.019a1.208,1.208,0,0,0-.077.116.212.212,0,0,1-.029.048h0a.211.211,0,0,1-.029-.048c-.01-.01-.01-.029-.029-.039a.083.083,0,0,0-.058-.029.074.074,0,0,0-.048.019.141.141,0,0,0-.048.126h0a.159.159,0,0,1-.019.1.141.141,0,0,1-.116.039.521.521,0,0,1-.077-.01.319.319,0,0,0-.2-.039h-.087a.893.893,0,0,0-.242.048.38.38,0,0,0-.087.039c-.019.019-.048.039-.048.068a.036.036,0,0,0,.01.029v.01l-.01.01a.058.058,0,0,1-.039.01h-.01a.063.063,0,0,0-.048-.019.275.275,0,0,0-.116.039.122.122,0,0,0-.068.1v.029a.074.074,0,0,1-.019.048c-.01.01-.019.019-.029.019h-.048a.133.133,0,0,0-.145.126c0,.01-.039.029-.077.039-.019.01-.039.01-.058.019h-.029a.4.4,0,0,0-.1.01.419.419,0,0,0-.048.01c-.019.01-.039.019-.039.048a.053.053,0,0,0,.029.048.121.121,0,0,0,.106.029h.058c.01,0,.039.029.068.058s.039.068.077.087a.087.087,0,0,0,.048.01.121.121,0,0,0,.106-.058c.01-.01.01-.019.019-.029a.134.134,0,0,0,.039.029.123.123,0,0,0,.058.01,1.543,1.543,0,0,0,.165-.019h0c.019,0,.077.01.145.019a.73.73,0,0,1,.145.039c.039.019.087.029.135.048a.207.207,0,0,1,.1.058.5.5,0,0,1,.029.165c0,.039.01.068.01.1s0,.048.019.068a.073.073,0,0,0,.039.019h.01a.123.123,0,0,0-.01.058.14.14,0,0,0,.019.068.065.065,0,0,0,.058.039h.048c-.01.01-.019.019-.019.029a.156.156,0,0,0-.039.068v.01a.9.9,0,0,0,.077.194.13.13,0,0,0,.087.048h.01c0,.01,0,.01-.01.019a.036.036,0,0,0,.01.029c.01.01.019.048.039.077a.2.2,0,0,0,.077.077.872.872,0,0,1,.106.068.849.849,0,0,1,.077.068.08.08,0,0,0,.058.039.231.231,0,0,0,.087-.029c.01,0,.01-.01.019-.01s.01.019.01.039a.1.1,0,0,0,.077.068h.029a.225.225,0,0,0,.145-.068.2.2,0,0,0,.058-.174v-.039h0c.019,0,.029.01.039.01a.088.088,0,0,0,.068-.029c.019-.019.019-.039.029-.068v-.01a.282.282,0,0,0-.019-.077v-.01a.042.042,0,0,1,.029-.01.31.31,0,0,0,.126-.048.168.168,0,0,1,.068-.029c.029,0,.116.01.184.01h.048a.164.164,0,0,0,.048-.019.772.772,0,0,1,.058-.077c.01-.019.029-.029.039-.039s.01-.01.019-.01h0c.048-.01.184-.019.3-.039a.734.734,0,0,0,.174-.058.911.911,0,0,1,.1-.039h.048a.123.123,0,0,0,.058-.01.036.036,0,0,0,.029-.01.05.05,0,0,0,.019-.039.036.036,0,0,0-.01-.029h.019a.058.058,0,0,0,.039-.01c.077-.019.106-.068.106-.106a.082.082,0,0,0-.019-.058.307.307,0,0,1-.039-.106c0-.01-.01-.01,0-.019s0-.01.01-.01c.019-.039.029-.048.058-.048m-2.477.155h-.058c.01-.01.01-.01.01-.019h.01a.1.1,0,0,1,.058.019Zm.126.145a.073.073,0,0,1-.01.039c-.01,0-.01,0-.019-.01.01-.019.01-.029.019-.048a.03.03,0,0,1,.01.019Zm2.032-.1c0-.01.01-.029.01-.039a.009.009,0,0,1,.01-.01.036.036,0,0,1,.029.01c.019.01.019.019.019.019h0v.039a.18.18,0,0,0-.068-.019m1.035.648a.394.394,0,0,0,.068-.019.211.211,0,0,0,.058-.01.036.036,0,0,0,.029-.01.349.349,0,0,1,.048-.039c.019-.029.048-.048.048-.087a.039.039,0,0,0-.019-.039.409.409,0,0,0-.194-.077h-.01c-.068,0-.1.039-.184.039a1.282,1.282,0,0,0-.155.019c-.01,0-.01,0-.019-.01a.286.286,0,0,0-.194-.058h-.039a.052.052,0,0,0-.039.029c0,.01-.01.01-.019.019a.074.074,0,0,0-.019.048.246.246,0,0,0,.019.068c.019.039.039.068.048.087a.1.1,0,0,0,.077.039h.058c.019,0,.048,0,.058.01s.01,0,.019.01h0a.118.118,0,0,0,.116.087h0a.189.189,0,0,0,.068-.01.545.545,0,0,0,.116-.039c.01-.019.039-.029.058-.058m5.642,6.89c-.019-.039-.029-.077-.077-.1l-.01.029.01-.029c-.01,0-.029-.01-.039-.01a.11.11,0,0,0-.077.029c-.048.048-.068.116-.116.165s-.077.068-.106.1a.134.134,0,0,0-.039.029c-.01,0-.01,0-.01.01h-.01a.18.18,0,0,0-.106.039.131.131,0,0,0-.077.116.123.123,0,0,0,.01.058.38.38,0,0,1,.029.135.155.155,0,0,1-.039.106.088.088,0,0,0-.029.068c0,.068.039.165.039.213v.01c0,.01-.01.029-.01.039a.124.124,0,0,0,.039.1.164.164,0,0,0,.126.039h0a.189.189,0,0,0,.135-.039.366.366,0,0,0,.087-.116c.048-.1.068-.194.106-.271a.837.837,0,0,0,.068-.165.676.676,0,0,1,.048-.126.763.763,0,0,0,.077-.261v-.019a.388.388,0,0,0-.029-.145m6.126-.135h0a.088.088,0,0,0,.1-.077v-.01a.088.088,0,0,0-.029-.068.082.082,0,0,0-.068-.019.113.113,0,0,0-.106.068v.019a.1.1,0,0,0,.106.087m-16.742-2.884c0-.039-.029-.058-.048-.087a.182.182,0,0,0-.106-.048h-.01a.193.193,0,0,1-.077-.029.838.838,0,0,1-.1-.068.431.431,0,0,0-.232-.068.38.38,0,0,0-.135.029.638.638,0,0,0-.1.029c-.01,0-.019.019-.029.029v.01a.088.088,0,0,0,.029.068c.019.01.048.01.068.019h.3c.01,0,.019,0,.019.01h0a.335.335,0,0,0,.106.077c.039.019.077.048.1.058a.213.213,0,0,0,.126.039.073.073,0,0,0,.048-.01.042.042,0,0,0,.039-.039l-.039-.01.039.01v-.019m-.261.165h0a.08.08,0,0,0-.068.087.071.071,0,0,0,.019.058.081.081,0,0,0,.068.039h.029a.083.083,0,0,0,.068-.087.1.1,0,0,0-.1-.106c-.01.01-.01.01-.019.01m.087-.542a.088.088,0,0,0-.1-.077h-.019a.083.083,0,0,0-.077.068.074.074,0,0,0,.019.048.14.14,0,0,0,.068.019h.029l-.01-.029.01.029c.048,0,.077-.019.077-.058m16.471,3.106a.075.075,0,0,0,.039-.039l-.039-.01h.039v-.01a.184.184,0,0,0-.048-.1.134.134,0,0,0-.1-.048c-.01,0-.068-.01-.116-.019l-.1-.019h-.029a.667.667,0,0,1-.077.029.009.009,0,0,1-.01-.01.278.278,0,0,0-.145-.029c-.019,0-.029,0-.039-.01s-.01,0-.01-.01a.1.1,0,0,0-.087-.068h-.019a.416.416,0,0,1,.058-.194.11.11,0,0,0,.029-.077.071.071,0,0,0-.019-.058.075.075,0,0,0-.068-.029h-.019a.03.03,0,0,1-.019-.01,1.13,1.13,0,0,0-.155-.155,1.007,1.007,0,0,1-.242-.213c-.087-.106-.2-.165-.252-.223a.277.277,0,0,0-.194-.077h-.029a.063.063,0,0,0-.058.048.088.088,0,0,0,.029.068.74.74,0,0,0,.087.087.429.429,0,0,0,.058.048,1.212,1.212,0,0,1,.116.116.418.418,0,0,1,.087.145.424.424,0,0,0,.068.194.9.9,0,0,0,.1.145c.019.019.077.058.126.1s.106.087.106.106c.019.039.039.068.087.068a.13.13,0,0,0,.068.106.386.386,0,0,0,.165.029h.048c.029,0,.058-.01.077-.01a.036.036,0,0,0,.029-.01h0a.233.233,0,0,0,.184.077h.058c.048,0,.116.019.174.019.01.048.029.048.039.039m1.277-1a.384.384,0,0,0-.116.223.073.073,0,0,0,.01.048.068.068,0,0,0,.048.039h.019c.068,0,.1-.058.126-.1a.321.321,0,0,0,.048-.155V73a.052.052,0,0,0-.029-.039c-.01,0-.019-.01-.029-.01a.284.284,0,0,0-.077.039M122,69.655a.714.714,0,0,1-.077.126q-.015.029-.029.029h0c-.019,0-.029.01-.048.01a.594.594,0,0,0-.223.106h-.019c-.048,0-.145-.029-.2-.029a.1.1,0,0,0-.077.029,1.654,1.654,0,0,1-.135.106l-.058.019c-.029.01-.087.039-.087.087v.029a.56.56,0,0,0,.048.135.105.105,0,0,0,.1.068.18.18,0,0,0,.106-.039.169.169,0,0,0,.058-.116h0c.01,0,.019.01.039.01a.182.182,0,0,0,.077.019h.01a.159.159,0,0,0,.116-.087c.01.01.019.01.039.019s.029.01.048.01a.176.176,0,0,0,.106-.039c.019-.019.029-.029.029-.048a.449.449,0,0,1,.087-.029c.039-.019.077-.019.116-.039.01-.01.048-.019.087-.039l.058-.029a.068.068,0,0,0,.039-.048c.01-.029.01-.077.019-.126,0-.029.01-.048.01-.068s0-.01.01-.019.019-.01.039-.019a.08.08,0,0,0,.039-.058.184.184,0,0,0-.029-.087c-.019-.039-.029-.087-.048-.116,0-.01-.01-.019-.01-.029.029-.01.068-.01.1-.019a1.052,1.052,0,0,0,.213-.039h.01a.3.3,0,0,0,.087-.01c.039-.01.087-.029.087-.077v-.019a.126.126,0,0,0-.1-.087.666.666,0,0,0-.126-.019h-.029a.134.134,0,0,0-.039-.029.123.123,0,0,0-.087-.039h-.029a.16.16,0,0,0-.1.077.321.321,0,0,1-.029.058.57.57,0,0,0-.077.039c-.039.019-.087.039-.1.087a.074.074,0,0,0,.019.048c.01.01.019.019.029.019a.248.248,0,0,0-.048.116.265.265,0,0,1-.019.155m-2.565,3.136c-.019.019-.029.039-.039.048s-.01.01-.01.019h0c-.019.019-.048.019-.106.039a.172.172,0,0,0-.116.116c-.01,0-.019-.01-.029-.019a.144.144,0,0,0-.077-.029.074.074,0,0,0-.048.019.11.11,0,0,0-.029.077.615.615,0,0,0,.039.252.385.385,0,0,0,.116.155.324.324,0,0,0,.126.068.453.453,0,0,1,.155.019.429.429,0,0,0,.126.019.363.363,0,0,0,.1-.01.1.1,0,0,0,.068-.068v-.1a.191.191,0,0,1,.058-.135c.029-.029.068-.048.1-.077a.191.191,0,0,0,.058-.106.123.123,0,0,0-.01-.058,1.186,1.186,0,0,1-.068-.165c0-.01,0-.01.01-.01.029-.019.048-.029.077-.048s.058-.039.058-.077a.036.036,0,0,0-.01-.029.073.073,0,0,0-.039-.019c-.019,0-.029.01-.039.01s-.019.01-.019,0h0l-.01-.01a.226.226,0,0,1-.019-.106.039.039,0,0,0-.019-.039.073.073,0,0,0-.039-.019.172.172,0,0,0-.1.039c-.029.019-.058.048-.058.077v.01a.42.42,0,0,0,.01.048v.01h-.039a.3.3,0,0,0-.174.1m.735-1.8a.288.288,0,0,0-.048.135.123.123,0,0,0,.01.058.089.089,0,0,0,.058.039h.01a.2.2,0,0,0,.135-.1.306.306,0,0,0,.058-.145.087.087,0,0,0-.01-.048.059.059,0,0,0-.058-.029h-.019a.2.2,0,0,0-.135.087m-.165.774a.123.123,0,0,0,.01.058.434.434,0,0,0,.106.126c.019.019.039.029.048.039l.01.01c-.039.039-.155.106-.184.194v.01a.036.036,0,0,0,.01.029.073.073,0,0,0,.039.019h0c.039,0,.048-.019.077-.029a1.263,1.263,0,0,0,.2-.174.1.1,0,0,1,.077-.029.123.123,0,0,0,.058-.01.06.06,0,0,0,.058-.039l.029-.039a.018.018,0,0,0,0-.029c0-.01-.01-.019-.029-.019,0,0-.077-.019-.145-.039a.073.073,0,0,0-.039-.01.123.123,0,0,0-.058.01c0-.01,0-.01.01-.019a.174.174,0,0,1,.077-.087.136.136,0,0,0,.077-.1V71.61a.2.2,0,0,0-.068-.116.156.156,0,0,0-.087-.029.081.081,0,0,0-.068.039c-.019.048,0,.077-.039.106a.851.851,0,0,1-.1.058.154.154,0,0,0-.077.1" transform="translate(-86.719 -62.929)"/>
    <path id="Path_169" data-name="Path 169" class="cls-28" d="M351.377,58.726l12.542,2.884-5.806-16.9L349.5,43.6Z" transform="translate(-316.771 -43.6)"/>
    <path id="Path_170" data-name="Path 170" class="cls-29" d="M139.2,58.755l11.748,2.565.561-16.539L142.868,43.6Z" transform="translate(-126.823 -43.6)"/>
  </g>
  <g id="Group_60" data-name="Group 60" transform="translate(10.161)">
    <g id="Group_59" data-name="Group 59" class="cls-1" transform="translate(0 7.858)">
      <path id="Path_171" data-name="Path 171" class="cls-30" d="M119.671,83.184c0,1.094-3.281,1.984-7.336,1.984S105,84.277,105,83.184s3.281-1.984,7.336-1.984S119.671,82.1,119.671,83.184Z" transform="translate(-105 -81.2)"/>
      <path id="Path_172" data-name="Path 172" class="cls-31" d="M122.513,84.186c0,1.045-3.135,1.887-7.006,1.887s-7.006-.842-7.006-1.887,3.135-1.887,7.006-1.887S122.513,83.141,122.513,84.186Z" transform="translate(-108.161 -82.193)"/>
      <path id="Path_173" data-name="Path 173" class="cls-32" d="M125.074,85c0,1-2.99,1.8-6.687,1.8S111.7,86,111.7,85s2.99-1.8,6.687-1.8S125.074,84,125.074,85Z" transform="translate(-111.052 -83.006)"/>
      <path id="Path_174" data-name="Path 174" class="cls-33" d="M127.636,85.912c0,.948-2.855,1.713-6.368,1.713s-6.368-.765-6.368-1.713,2.855-1.713,6.368-1.713S127.636,84.964,127.636,85.912Z" transform="translate(-113.942 -83.909)"/>
      <path id="Path_175" data-name="Path 175" class="cls-34" d="M130.2,86.726c0,.9-2.71,1.626-6.048,1.626s-6.048-.726-6.048-1.626,2.71-1.626,6.048-1.626S130.2,85.826,130.2,86.726Z" transform="translate(-116.832 -84.723)"/>
      <path id="Path_176" data-name="Path 176" class="cls-35" d="M132.939,87.539c0,.852-2.565,1.539-5.719,1.539s-5.719-.687-5.719-1.539S124.065,86,127.219,86,132.939,86.7,132.939,87.539Z" transform="translate(-119.903 -85.535)"/>
      <path id="Path_177" data-name="Path 177" class="cls-36" d="M135.6,88.452c0,.8-2.419,1.452-5.4,1.452s-5.4-.648-5.4-1.452S127.219,87,130.2,87,135.6,87.648,135.6,88.452Z" transform="translate(-122.884 -86.439)"/>
      <path id="Path_178" data-name="Path 178" class="cls-37" d="M138.161,89.265c0,.755-2.274,1.365-5.081,1.365S128,90.019,128,89.265s2.274-1.365,5.081-1.365S138.161,88.519,138.161,89.265Z" transform="translate(-125.774 -87.252)"/>
      <path id="Path_179" data-name="Path 179" class="cls-38" d="M140.723,90.267c0,.706-2.129,1.268-4.761,1.268s-4.761-.571-4.761-1.268S133.329,89,135.961,89,140.723,89.56,140.723,90.267Z" transform="translate(-128.665 -88.244)"/>
      <path id="Path_180" data-name="Path 180" class="cls-39" d="M143.284,91.081c0,.658-1.984,1.181-4.442,1.181s-4.442-.532-4.442-1.181,1.984-1.181,4.442-1.181S143.284,90.423,143.284,91.081Z" transform="translate(-131.555 -89.058)"/>
      <path id="Path_181" data-name="Path 181" class="cls-40" d="M146.126,91.894c0,.61-1.839,1.094-4.113,1.094s-4.113-.494-4.113-1.094,1.839-1.094,4.113-1.094S146.126,91.294,146.126,91.894Z" transform="translate(-134.716 -89.871)"/>
      <path id="Path_182" data-name="Path 182" class="cls-41" d="M148.687,92.806c0,.552-1.7,1.006-3.794,1.006s-3.794-.455-3.794-1.006,1.7-1.006,3.794-1.006S148.687,92.245,148.687,92.806Z" transform="translate(-137.606 -90.774)"/>
      <path id="Path_183" data-name="Path 183" class="cls-42" d="M151.248,93.619c0,.5-1.558.919-3.474.919s-3.474-.406-3.474-.919,1.558-.919,3.474-.919S151.248,93.116,151.248,93.619Z" transform="translate(-140.497 -91.587)"/>
      <path id="Path_184" data-name="Path 184" class="cls-43" d="M153.81,94.432c0,.455-1.413.832-3.155.832s-3.155-.368-3.155-.832,1.413-.832,3.155-.832S153.81,93.977,153.81,94.432Z" transform="translate(-143.387 -92.4)"/>
      <ellipse id="Ellipse_1" data-name="Ellipse 1" class="cls-44" cx="2.826" cy="0.745" rx="2.826" ry="0.745" transform="translate(4.442 1.297)"/>
      <path id="Path_185" data-name="Path 185" class="cls-45" d="M159.213,96.248c0,.358-1.123.648-2.506.648s-2.506-.29-2.506-.648,1.123-.648,2.506-.648S159.213,95.89,159.213,96.248Z" transform="translate(-149.439 -94.206)"/>
      <path id="Path_186" data-name="Path 186" class="cls-46" d="M161.774,97.159c0,.31-.977.561-2.187.561s-2.187-.252-2.187-.561.977-.561,2.187-.561S161.774,96.839,161.774,97.159Z" transform="translate(-152.329 -95.107)"/>
      <path id="Path_187" data-name="Path 187" class="cls-47" d="M164.335,97.974c0,.261-.832.474-1.868.474s-1.868-.213-1.868-.474.832-.474,1.868-.474S164.335,97.713,164.335,97.974Z" transform="translate(-155.219 -95.923)"/>
      <path id="Path_188" data-name="Path 188" class="cls-48" d="M167,98.787c0,.213-.687.387-1.548.387S163.9,99,163.9,98.787s.687-.387,1.548-.387S167,98.574,167,98.787Z" transform="translate(-158.2 -96.735)"/>
      <path id="Path_189" data-name="Path 189" class="cls-49" d="M169.739,99.7c0,.165-.552.3-1.219.3s-1.219-.135-1.219-.3.552-.3,1.219-.3S169.739,99.535,169.739,99.7Z" transform="translate(-161.271 -97.639)"/>
      <path id="Path_190" data-name="Path 190" class="cls-50" d="M172.3,100.513c0,.116-.406.213-.9.213s-.9-.1-.9-.213.406-.213.9-.213S172.3,100.4,172.3,100.513Z" transform="translate(-164.161 -98.452)"/>
      <path id="Path_191" data-name="Path 191" class="cls-23" d="M174.861,101.326c0,.068-.261.126-.581.126s-.581-.058-.581-.126.261-.126.581-.126S174.861,101.258,174.861,101.326Z" transform="translate(-167.052 -99.265)"/>
    </g>
    <path id="Path_192" data-name="Path 192" class="cls-51" d="M148.161,2.332a1.224,1.224,0,1,0,1.229,1.219A1.235,1.235,0,0,0,148.161,2.332Zm0-2.332A3.562,3.562,0,0,0,144.6,3.552c0,2.458,3.561,6.106,3.561,6.106S151.723,6,151.723,3.552A3.562,3.562,0,0,0,148.161,0Zm0,5.632a2.071,2.071,0,1,1,2.081-2.071A2.08,2.08,0,0,1,148.161,5.632Z" transform="translate(-140.768)"/>
  </g>
</svg>
