<svg xmlns="http://www.w3.org/2000/svg" viewBox="0 0 28.819 21.127">
  <defs>
    <style>
      .cls-1 {
        fill: #fff;
      }
    </style>
  </defs>
  <g id="XMLID_79_" transform="translate(-1274.11 -585.373)">
    <path id="XMLID_87_" class="cls-1" d="M1281.4,593.9l-6.6,5.3a.758.758,0,0,0-.2.4v6.2a.645.645,0,0,0,.6.6h6.6a.645.645,0,0,0,.6-.6V594.3a.55.55,0,0,0-.3-.5A1.481,1.481,0,0,0,1281.4,593.9Zm-.2,11.4h-5.5V600l5.5-4.4Z"/>
    <path id="XMLID_84_" class="cls-1" d="M1286.2,590.5l-1.7,1.1a.55.55,0,0,0-.3.5v13.8a.645.645,0,0,0,.6.6h6.6a.645.645,0,0,0,.6-.6v-9.8a.758.758,0,0,0-.2-.4l-4.9-5.1A.494.494,0,0,0,1286.2,590.5Zm4.6,14.8h-5.5v-13l1-.7,4.4,4.6v9.1Z"/>
    <path id="XMLID_81_" class="cls-1" d="M1298.2,591.7l-4.3,4.3a.367.367,0,0,0-.1.3V606a.43.43,0,0,0,.4.4h4.3a.43.43,0,0,0,.4-.4V592a.52.52,0,0,0-.2-.4A.9.9,0,0,0,1298.2,591.7Zm-.1,14h-3.5v-9.1l3.5-3.5Z"/>
    <path id="XMLID_80_" class="cls-1" d="M1302,585.5l-9.3,6.9-5.4-5.7a.619.619,0,0,0-.8-.1c-4,2.8-8,5.6-12.1,8.4-.7.5,0,1.6.7,1.2,3.9-2.7,7.8-5.4,11.6-8.1l5.4,5.7a.619.619,0,0,0,.8.1c3.3-2.4,6.5-4.8,9.8-7.2C1303.3,586.1,1302.6,585,1302,585.5Z"/>
  </g>
</svg>
