<svg xmlns="http://www.w3.org/2000/svg" viewBox="0 0 31.171 22.404">
  <defs>
    <style>
      .cls-1 {
        fill: #5e7984;
      }
    </style>
  </defs>
  <g id="Group_822" data-name="Group 822" transform="translate(0 -0.009)">
    <path id="Path_1677" data-name="Path 1677" class="cls-1" d="M30.2,10.723H28.523l.67-2.685a.976.976,0,0,0-.944-1.212h-.42l-2.636-4.4a.973.973,0,0,0-1.376-.31L21.43,3.71,16.127.172a.979.979,0,0,0-1.151.049L10.52,3.789,8.1,2.979a.98.98,0,0,0-1.09.341L4.383,6.827H2.922a.976.976,0,0,0-.944,1.212l.67,2.685H.974a.974.974,0,1,0,0,1.948H3.135L4.9,19.727a.976.976,0,0,0,.944.737H7.969a2.909,2.909,0,0,0,5.491,0h4.256a2.909,2.909,0,0,0,5.491,0h2.119a.976.976,0,0,0,.944-.737l1.766-7.056H30.2a.974.974,0,1,0,0-1.948ZM8.152,5.049l2.259.755a.981.981,0,0,0,.919-.164l4.316-3.452,5.254,3.5a.975.975,0,0,0,1.084,0l2.07-1.382,1.51,2.52H6.819L8.152,5.049Zm2.563,15.415a.974.974,0,1,1,.974-.974A.977.977,0,0,1,10.715,20.464Zm9.741,0a.974.974,0,1,1,.974-.974A.977.977,0,0,1,20.456,20.464Zm4.109-1.948H23.2s-1.473-1.948-2.746-1.948A2.888,2.888,0,0,0,17.7,18.516H13.449a2.909,2.909,0,0,0-5.491,0H6.587L4.152,8.775h22.83Z" transform="translate(0 0)"/>
  </g>
</svg>
