<svg xmlns="http://www.w3.org/2000/svg" viewBox="0 0 24.833 24.833">
  <defs>
    <style>
      .cls-1 {
        fill: #5e7984;
      }
    </style>
  </defs>
  <g id="Group_818" data-name="Group 818" transform="translate(-204.5 -355.1)">
    <path id="Path_1661" data-name="Path 1661" class="cls-1" d="M216.917,379.933a12.417,12.417,0,1,1,12.417-12.417A12.443,12.443,0,0,1,216.917,379.933Zm0-22.471a10.1,10.1,0,1,0,10.1,10.1A10.1,10.1,0,0,0,216.917,357.463Z"/>
    <g id="Group_791" data-name="Group 791" transform="translate(212.895 361.434)">
      <g id="Group_790" data-name="Group 790" transform="translate(0)">
        <path id="Path_1662" data-name="Path 1662" class="cls-1" d="M228.288,375.592c0,1.458-1.106,2.363-2.715,2.564v1.81h-1.257v-1.759a5.889,5.889,0,0,1-3.117-1.357l.7-1.408a4.994,4.994,0,0,0,3.016,1.307c.955,0,1.508-.352,1.508-.955,0-1.81-4.725-.8-4.725-3.921,0-1.357,1.005-2.262,2.614-2.463V367.7h1.257v1.709a6.221,6.221,0,0,1,2.614.9l-.654,1.458a5.83,5.83,0,0,0-2.614-.855c-.8,0-1.307.3-1.307.8C223.563,373.431,228.288,372.476,228.288,375.592Z" transform="translate(-221.2 -367.7)"/>
      </g>
    </g>
  </g>
</svg>
