<svg xmlns="http://www.w3.org/2000/svg" viewBox="0 0 633.006 107.386">
  <defs>
    <style>
      .cls-1 {
        fill: none;
        stroke: #062945;
        stroke-linecap: round;
        stroke-width: 3px;
      }

      .cls-2 {
        fill: #062945;
      }
    </style>
  </defs>
  <g id="Group_875" data-name="Group 875" transform="translate(-56.5 -9328.788)">
    <g id="Group_871" data-name="Group 871" transform="translate(-244 114)">
      <g id="Group_870" data-name="Group 870" transform="translate(234 5189.441)">
        <g id="Group_761" data-name="Group 761" transform="translate(60 4026.846)">
          <path id="Path_1643" data-name="Path 1643" class="cls-1" d="M76.36,120.776H88.4L120.423,82.55c2.7-3.22,5.3-6.336,7.687-9.245a69.318,69.318,0,0,0,6.129-8.518,42.8,42.8,0,0,0,4.155-8.1,22.059,22.059,0,0,0,1.454-8.206c0-5.609-1.766-9.868-5.4-12.881-3.636-2.909-8.726-4.467-15.374-4.467A41.918,41.918,0,0,0,106.192,32.9a108.738,108.738,0,0,0-10.18,3.947q-1.247-3.116-2.493-6.544a29.923,29.923,0,0,1-1.558-6.856c3.74-1.558,7.791-3.012,12.257-4.467A54.884,54.884,0,0,1,120.007,16.9a54.589,54.589,0,0,1,14.75,1.87,33.017,33.017,0,0,1,11.53,5.505,24.176,24.176,0,0,1,7.479,9.245,30.834,30.834,0,0,1,2.6,13.192,40.65,40.65,0,0,1-5.817,20.568,155.177,155.177,0,0,1-16.62,22.23l-15.166,17.243h42.07c.208,1.143.415,2.285.519,3.532.1,1.143.208,2.389.208,3.636,0,1.143-.1,2.285-.208,3.532a31.811,31.811,0,0,1-.519,3.324H427.753c52.914,0,274.74.51,278.444.51,8.394,0-299.8-.51-299.8-.51" transform="translate(-68.36 -16.9)"/>
        </g>
        <path id="Path_1678" data-name="Path 1678" class="cls-2" d="M91.916,4033.753c.356,3.177,4.272,12.53,4.272,12.53s15.131-5.294,18.513-5.118,17.623-.706,21.361,5.118,4.45,9.353,4.45,13.236-1.6,12.53-15.487,28.06S88,4132.226,88,4132.226h74.23s1.246-13.941,0-14.647-42.544,0-42.544,0l28.125-34.412s8.366-13.413,8.9-17.824.356-19.059-2.314-22.765-8.366-11.294-13.885-12.177-13.707-4.588-20.827-3.706S91.56,4030.576,91.916,4033.753Z" transform="translate(-9.25)"/>
      </g>
    </g>
  </g>
</svg>
