<svg xmlns="http://www.w3.org/2000/svg" viewBox="0 0 635.2 107.637">
  <defs>
    <style>
      .cls-1 {
        fill: none;
        stroke: #062945;
        stroke-linecap: round;
        stroke-width: 3px;
      }

      .cls-2 {
        fill: #062945;
      }
    </style>
  </defs>
  <g id="Group_876" data-name="Group 876" transform="translate(-56.3 -9465.5)">
    <g id="Group_873" data-name="Group 873" transform="translate(-22 4)">
      <g id="Group_869" data-name="Group 869" transform="translate(88 9463)">
        <g id="Group_835" data-name="Group 835" transform="translate(0)">
          <path id="Path_1644" data-name="Path 1644" class="cls-1" d="M53.424,268.437H66.344c5.14,0,48.419-.6,48.419-.6-4.363-.776-41.207-.97-45.473-2.618a26.227,26.227,0,0,1,1.745-6.4q1.309-3.054,2.909-6.108a68.887,68.887,0,0,0,9.89,3.1,54.319,54.319,0,0,0,11.829,1.163,45.845,45.845,0,0,0,10.568-1.163,21.57,21.57,0,0,0,8.532-3.878,18.06,18.06,0,0,0,5.721-6.884,22.078,22.078,0,0,0,2.133-10.278c0-6.108-2.036-10.665-6.108-13.574-4.072-3.006-9.308-4.46-15.8-4.46-1.939,0-3.975.1-6.011.194a43.09,43.09,0,0,0-6.011.97l-1.163-2.036,24.724-38.88H74.331a32.688,32.688,0,0,1-.582-6.4c0-1.067.1-2.23.194-3.394s.291-2.327.485-3.394h59.92l1.067,1.745-26.954,41.013a3.486,3.486,0,0,1,1.067-.194h1.163a27.156,27.156,0,0,1,12.023,2.424,25.586,25.586,0,0,1,8.435,6.4,26.056,26.056,0,0,1,4.945,8.726,30.154,30.154,0,0,1,1.648,9.5,37.451,37.451,0,0,1-3.3,16.386,33.408,33.408,0,0,1-8.92,11.344,37.651,37.651,0,0,1-13.186,6.69l573.285.6" transform="translate(-61.624 -163.8)"/>
        </g>
      </g>
      <path id="Path_1699" data-name="Path 1699" class="cls-2" d="M127.183,6798.424H67.774v12.619l37.33.581-23.967,38.492,1.017,2.759s11.62-4.357,19.609-.726,17.866,8.134,13.8,22.224S99,6890.206,99,6890.206s-9.877,1.6-13.654,1.308-17.576-4.213-17.576-4.213L62.4,6898.486l2.324,2.469,9.3,2.469h33.844l9.587-6.391s12.056-9.732,12.927-18.883-.726-21.352-2.034-23.095-7.989-11.911-12.782-12.492-10.168-2.47-11.911-2.034a20.661,20.661,0,0,0-3.05,1.017l14.961-21.352,12.782-19.609Z" transform="translate(33.153 2664.576)"/>
    </g>
  </g>
</svg>
