<svg xmlns="http://www.w3.org/2000/svg" viewBox="0 0 633.5 125.59">
  <defs>
    <style>
      .cls-1 {
        fill: none;
        stroke: #062945;
        stroke-linecap: round;
        stroke-width: 3px;
      }

      .cls-2 {
        fill: #062945;
      }
    </style>
  </defs>
  <g id="Group_877" data-name="Group 877" transform="translate(-56.5 -9602.41)">
    <g id="Group_872" data-name="Group 872" transform="translate(-19 285)">
      <g id="Group_868" data-name="Group 868" transform="translate(72.118 9319)">
        <path id="Path_1645" data-name="Path 1645" class="cls-1" d="M36.482,436.718h65.975V413.6H44.928L43.6,411.715,93.053,314.8a26.954,26.954,0,0,1,7.3,1.77,38.027,38.027,0,0,1,7.3,3.762L68.382,398.66h34.075V366.576c1.328-.221,2.655-.443,4.093-.553,1.328-.111,2.655-.221,3.872-.221,1.438,0,2.876.111,4.315.221s2.766.332,4.093.553V398.66h15.489c.221,1.217.443,2.434.553,3.762.111,1.217.221,2.434.221,3.762,0,1.217-.111,2.545-.221,3.761a31.856,31.856,0,0,1-.553,3.651H118.831v23.122l548.151.582" transform="translate(-31.6 -314.8)"/>
      </g>
      <path id="Path_1698" data-name="Path 1698" class="cls-2" d="M106.716,8413.984s-8.851-4.627-11.466-5.027a11.713,11.713,0,0,0-4.224,0L42.75,8504.3l.8,2.814h57.73l-1.006,24.039.68.468h17.063l-.444-24.507H135.21s-.735-11.666-1.941-14.279-15.69,0-15.69,0v-32.387s-15.288-1.609-16.293,0,0,31.381,0,31.381H67.693Z" transform="translate(40.79 910.767)"/>
    </g>
  </g>
</svg>
