<svg xmlns="http://www.w3.org/2000/svg" viewBox="0 0 21.823 22.417">
  <defs>
    <style>
      .cls-1 {
        fill: #5e7984;
      }
    </style>
  </defs>
  <g id="Group_820" data-name="Group 820" transform="translate(-1302.5 -1456.644)">
    <g id="Group_468" data-name="Group 468" transform="translate(1302.5 1458.721)">
      <path id="Path_1043" data-name="Path 1043" class="cls-1" d="M44.67,311.34a10.17,10.17,0,1,1,0-20.34c.424,0,.636.318.636.742v8.793H54.1c.424,0,.636.318.636.742A10.128,10.128,0,0,1,44.67,311.34Zm-.742-18.857a8.682,8.682,0,0,0-8.051,8.687,8.754,8.754,0,0,0,17.479.742H44.67c-.424,0-.636-.318-.636-.742v-8.687Z" transform="translate(-34.5 -291)"/>
    </g>
    <g id="Group_469" data-name="Group 469" transform="translate(1313.623 1456.644)">
      <path id="Path_1044" data-name="Path 1044" class="cls-1" d="M55.064,300.411H45.636c-.424,0-.636-.318-.636-.742v-9.428a.708.708,0,0,1,.636-.742A10.083,10.083,0,0,1,55.7,299.67.708.708,0,0,1,55.064,300.411Zm-8.793-1.377h8.051a8.745,8.745,0,0,0-8.051-8.051Z" transform="translate(-45 -289.5)"/>
    </g>
  </g>
</svg>
