<svg xmlns="http://www.w3.org/2000/svg" width="24.002" height="24" viewBox="0 0 24.002 24">
  <path id="Exclusion_3" data-name="Exclusion 3" d="M17643,11084a12.006,12.006,0,1,1,8.484-3.516A11.926,11.926,0,0,1,17643,11084Zm-.18-10.012v0l2.086,3.584a1.5,1.5,0,0,0,.369.425.915.915,0,0,0,.6.181h3.359l-3.92-6.2,3.766-5.488h-3.205a.833.833,0,0,0-.439.107.944.944,0,0,0-.324.363l-1.49,2.605c-.082.137-.154.27-.225.406a1.979,1.979,0,0,0-.168.394l-2.086-3.46a.867.867,0,0,0-.311-.322,1.2,1.2,0,0,0-.549-.094h-3.359l3.766,5.646-3.922,6.041h3.109a.857.857,0,0,0,.564-.184,1.633,1.633,0,0,0,.363-.422l1.711-2.912a2.974,2.974,0,0,0,.17-.312,2.916,2.916,0,0,0,.137-.359Z" transform="translate(-17631.004 -11060.002)"/>
</svg>
