<svg xmlns="http://www.w3.org/2000/svg" width="36.5" height="36.5" viewBox="0 0 36.5 36.5">
  <g id="Group_247" data-name="Group 247" transform="translate(-661 -22)">
    <circle id="Ellipse_1" data-name="Ellipse 1" cx="18.25" cy="18.25" r="18.25" transform="translate(661 22)" fill="#fff"/>
    <g id="Group_245" data-name="Group 245" transform="translate(667.388 28.425)">
      <path id="Path_545" data-name="Path 545" d="M763.506,2561.679a11.958,11.958,0,1,0,11.958,11.958A11.958,11.958,0,0,0,763.506,2561.679ZM772,2578.213a.954.954,0,0,1-.108.458h-.006a1.076,1.076,0,0,1-.942.577H756.685a1.08,1.08,0,0,1-.451-.107s-.009-.007-.013-.009v0a1.1,1.1,0,0,1-.47-.431l0,.011a.957.957,0,0,1-.13-.5v-9.289s-.013-.013-.009-.013h.006l-.015-.011,8.144.011h8.266s-.009.01-.009.013v-.013h.018l-.018.018v9.284Z" transform="translate(-751.548 -2561.679)" fill="#4db748"/>
      <path id="Path_546" data-name="Path 546" d="M851.191,2710.018l-7.775,5.737a.742.742,0,0,1-.848,0L834.805,2710H834.8s.009.009.009.013v.627l5.535,4.105-5.4,5.041a1.093,1.093,0,0,0,.468.43l5.444-5.086,2.141,1.587,2.175-1.61,5.452,5.079a1.137,1.137,0,0,1-.51.1H835.882a1.145,1.145,0,0,1-.457-.069,1.094,1.094,0,0,0,.451.118h14.258a1.083,1.083,0,0,0,.946-.577l-5.392-5.036,5.5-4.084v-.622Z" transform="translate(-830.739 -2702.768)" fill="#4db748"/>
    </g>
  </g>
</svg>
