<svg xmlns="http://www.w3.org/2000/svg" viewBox="0 0 36.41 50.69"><defs><style>.cls-1{fill:#fff;}</style></defs><title>Asset 13</title><g id="Layer_2" data-name="Layer 2"><g id="Layer_1-2" data-name="Layer 1"><path class="cls-1" d="M20.74,18.62a2.23,2.23,0,0,0-2.23-2.23h-.16a2.83,2.83,0,0,0-2.83,2.83L15.4,23l-.27,8.41c-.06.26-.09,6.1-.09,6.1-.5-.5-1-1.08-1.54-1.63a8.28,8.28,0,0,0-4.68-2.31,2.28,2.28,0,0,0-1.69.3,3.27,3.27,0,0,0-.35.3c-.73.72-1.28,1.88-.77,2.72a3,3,0,0,0,1,.88,7.15,7.15,0,0,1,2.1,1.57c1.12,1.44,3.73,4.67,5.33,6.39.34.2,1,.91,1.38,1.09a12.26,12.26,0,0,1,2.12,1.58,9.77,9.77,0,0,0,1.55.93,10.39,10.39,0,0,0,5.27,1.32c2.25,0,4.29.13,5.8-1.2h.08l0-.1a7.44,7.44,0,0,0,2.48-5.5V33.59c0-.5-.11-2.19-1.53-2.7a2.57,2.57,0,0,0-1.88.08h-.17a2.15,2.15,0,0,0-1.78-1.69,2.93,2.93,0,0,0-2.32.48,2.44,2.44,0,0,0-2.62-1.39,3,3,0,0,0-2.12,1.13V18.62Z"/><path class="cls-1" d="M31,27.57l1.15,1.27a.52.52,0,0,0,.81,0,18.21,18.21,0,1,0-29.59,0,.53.53,0,0,0,.82,0l1.14-1.27a.51.51,0,0,0,0-.64,15.51,15.51,0,1,1,25.6,0A.53.53,0,0,0,31,27.57Z"/><path class="cls-1" d="M25.93,21.88l1.21,1.34A.52.52,0,0,0,28,23.1a10.77,10.77,0,0,0,1.16-4.89,11,11,0,1,0-21.91,0A10.77,10.77,0,0,0,8.41,23.1a.53.53,0,0,0,.87.12l1.2-1.34a.52.52,0,0,0,.09-.56,8.25,8.25,0,1,1,15.27,0A.52.52,0,0,0,25.93,21.88Z"/></g></g></svg>