<svg xmlns="http://www.w3.org/2000/svg" xmlns:xlink="http://www.w3.org/1999/xlink" viewBox="0 0 46.34 49.33"><defs><style>.cls-1{fill:#fff;}.cls-2{fill:url(#linear-gradient);}</style><linearGradient id="linear-gradient" x1="18.41" y1="22.21" x2="27.7" y2="22.21" gradientUnits="userSpaceOnUse"><stop offset="0" stop-color="#003826"/><stop offset="1" stop-color="#0b5937"/></linearGradient></defs><title>Asset 23</title><g id="Layer_2" data-name="Layer 2"><g id="Layer_1-2" data-name="Layer 1"><path class="cls-1" d="M46.34,23.17A23.17,23.17,0,1,1,23.17,0,23.18,23.18,0,0,1,46.34,23.17Z"/><polygon class="cls-1" points="2.99 49.33 38.86 35.87 11.96 20.93 2.99 49.33"/><path class="cls-2" d="M20.5,37c.06-1.81.1-6,.1-8.47V26.58c0-2.22,0-3.47-.1-5.09l-2.09-.36V19.54l7.08-2.68.58.43L26,23.15V28.5c0,2.5,0,6.66.1,8.47Zm7.2-1.87V37h-9V35.1l3.13-.81h2.56ZM20.36,10.66a2.88,2.88,0,1,1,5.73,0,2.88,2.88,0,1,1-5.73,0Z"/></g></g></svg>