<svg xmlns="http://www.w3.org/2000/svg" viewBox="0 0 911.56 336.31"><defs><style>.cls-1{fill:none;stroke:#939b9e;stroke-miterlimit:10;stroke-width:1.62px;}.cls-15,.cls-2,.cls-5{font-size:17.94px;}.cls-2,.cls-3,.cls-6,.cls-9{fill:#939b9e;}.cls-15,.cls-2,.cls-3,.cls-5,.cls-6,.cls-9{font-family:NirmalaUI-Bold, Nirmala UI;font-weight:700;}.cls-3{font-size:14.28px;}.cls-4{letter-spacing:-0.06em;}.cls-5,.cls-7{fill:#2b2c2e;}.cls-6{font-size:16.44px;}.cls-8{fill:#63b044;}.cls-9{font-size:13.45px;}.cls-10{letter-spacing:-0.01em;}.cls-11{letter-spacing:-0.03em;}.cls-12{letter-spacing:-0.01em;}.cls-13{letter-spacing:-0.02em;}.cls-14{letter-spacing:-0.02em;}.cls-15{fill:#fff;}.cls-16{letter-spacing:-0.01em;}.cls-17{letter-spacing:-0.01em;}.cls-18{letter-spacing:0.02em;}.cls-19{letter-spacing:-0.07em;}</style></defs><title>Asset 22</title><g id="Layer_2" data-name="Layer 2"><g id="Layer_1-2" data-name="Layer 1"><line class="cls-1" x1="85.37" y1="260.09" x2="735.12" y2="260.09"/><line class="cls-1" x1="85.37" y1="218.22" x2="735.12" y2="218.22"/><line class="cls-1" x1="85.37" y1="176.34" x2="735.12" y2="176.34"/><line class="cls-1" x1="85.37" y1="134.47" x2="735.12" y2="134.47"/><line class="cls-1" x1="85.37" y1="92.6" x2="735.12" y2="92.6"/><line class="cls-1" x1="85.37" y1="50.73" x2="735.12" y2="50.73"/><text class="cls-2" transform="translate(8.64 223.61) scale(0.84 1)">$5 billion</text><text class="cls-2" transform="translate(57.44 259.48) scale(0.84 1)">$0</text><text class="cls-2" transform="translate(0 182.14) scale(0.84 1)">$10 billion</text><text class="cls-2" transform="translate(0 140.68) scale(0.84 1)">$15 billion</text><text class="cls-2" transform="translate(0 99.21) scale(0.84 1)">$20 billion</text><text class="cls-2" transform="translate(0 57.75) scale(0.84 1)">$25 billion</text><text class="cls-3" transform="translate(834.15 56.22) scale(0.84 1)">ADU<tspan class="cls-4" x="30.89" y="0">L</tspan><tspan x="37.41" y="0">T USE</tspan></text><text class="cls-3" transform="translate(834.15 84.78) scale(0.84 1)">MEDICAL USE</text><text class="cls-5" transform="translate(112.88 205.72) scale(0.84 1)">$4.6 bn</text><text class="cls-6" transform="translate(123.31 290.94) scale(0.84 1)">2014</text><rect class="cls-7" x="125.38" y="234.67" width="27.52" height="25.42"/><path class="cls-8" d="M138.32,219.65H140a12.94,12.94,0,0,1,12.94,12.94v2.08a0,0,0,0,1,0,0H125.38a0,0,0,0,1,0,0v-2.08A12.94,12.94,0,0,1,138.32,219.65Z"/><text class="cls-5" transform="translate(207.85 196.76) scale(0.84 1)">$5.4 bn</text><text class="cls-6" transform="translate(218.28 290.94) scale(0.84 1)">2015</text><rect class="cls-7" x="220.36" y="224.21" width="27.52" height="34.39"/><path class="cls-8" d="M233.3,209.19h1.65a12.94,12.94,0,0,1,12.94,12.94v5.07a0,0,0,0,1,0,0H220.36a0,0,0,0,1,0,0v-5.07A12.94,12.94,0,0,1,233.3,209.19Z"/><text class="cls-5" transform="translate(302.82 193.77) scale(0.84 1)">$5.7 bn</text><text class="cls-6" transform="translate(313.25 290.94) scale(0.84 1)">2016</text><rect class="cls-7" x="315.33" y="215.24" width="27.52" height="43.36"/><path class="cls-8" d="M328.27,197.23h1.65a12.94,12.94,0,0,1,12.94,12.94v5.07a0,0,0,0,1,0,0H315.33a0,0,0,0,1,0,0v-5.07a12.94,12.94,0,0,1,12.94-12.94Z"/><text class="cls-5" transform="translate(397.8 171.35) scale(0.84 1)">$8.1 bn</text><text class="cls-6" transform="translate(408.23 290.94) scale(0.84 1)">2017</text><rect class="cls-7" x="410.31" y="209.26" width="27.52" height="50.82"/><path class="cls-8" d="M423.25,186.77h1.65a12.94,12.94,0,0,1,12.94,12.94v14a0,0,0,0,1,0,0H410.31a0,0,0,0,1,0,0v-14A12.94,12.94,0,0,1,423.25,186.77Z"/><text class="cls-5" transform="translate(494.81 156.4) scale(0.84 1)">$12 bn</text><text class="cls-6" transform="translate(503.2 290.94) scale(0.84 1)">2018</text><rect class="cls-7" x="505.28" y="209.26" width="27.52" height="50.82"/><path class="cls-8" d="M518.22,165.84h1.65a12.94,12.94,0,0,1,12.94,12.94v30.48a0,0,0,0,1,0,0H505.28a0,0,0,0,1,0,0V178.78a12.94,12.94,0,0,1,12.94-12.94Z"/><text class="cls-5" transform="translate(583.43 110.06) scale(0.84 1)">$17.4 bn</text><text class="cls-6" transform="translate(598.18 290.95) scale(0.84 1)">2019</text><rect class="cls-7" x="600.26" y="186.84" width="27.52" height="71.75"/><path class="cls-8" d="M613.2,116.51h1.65a12.94,12.94,0,0,1,12.94,12.94v58.88a0,0,0,0,1,0,0H600.26a0,0,0,0,1,0,0V129.45A12.94,12.94,0,0,1,613.2,116.51Z"/><text class="cls-5" transform="translate(678.4 74.19) scale(0.84 1)">$21.8 bn</text><text class="cls-6" transform="translate(693.15 290.95) scale(0.84 1)">2020</text><rect class="cls-7" x="695.23" y="159.93" width="27.52" height="98.65"/><path class="cls-8" d="M708.17,85.13h1.65a12.94,12.94,0,0,1,12.94,12.94v66.35a0,0,0,0,1,0,0H695.23a0,0,0,0,1,0,0V98.07a12.94,12.94,0,0,1,12.94-12.94Z"/><circle class="cls-8" cx="811.99" cy="52.74" r="11.3"/><circle class="cls-7" cx="811.99" cy="79.87" r="11.3"/><rect class="cls-8" x="183.37" width="209.26" height="82.21" rx="41.1"/><text class="cls-9" transform="translate(233.17 327.76) scale(0.84 1)">Sou<tspan class="cls-10" x="23.9" y="0">r</tspan><tspan x="29.08" y="0">ce: A</tspan><tspan class="cls-10" x="59.63" y="0">r</tspan><tspan x="64.81" y="0">cView - The </tspan><tspan class="cls-11" x="141.89" y="0">S</tspan><tspan x="149" y="0">ta</tspan><tspan class="cls-12" x="161.47" y="0">t</tspan><tspan x="166.6" y="0">e </tspan><tspan class="cls-13" x="177.59" y="0">o</tspan><tspan x="185.57" y="0">f Legal Marijuana Mar</tspan><tspan class="cls-14" x="324.73" y="0">k</tspan><tspan x="331.99" y="0">ets 4th Edition</tspan></text><text class="cls-15" transform="translate(212.34 31.67) scale(0.84 1)"><tspan class="cls-16">C</tspan><tspan x="10.96" y="0">OMPOUND ANN</tspan><tspan class="cls-14" x="152.61" y="0">U</tspan><tspan x="165.22" y="0">AL </tspan><tspan x="29.23" y="21.52">G</tspan><tspan class="cls-17" x="41.98" y="21.52">R</tspan><tspan x="53.51" y="21.52">O</tspan><tspan class="cls-18" x="67.12" y="21.52">W</tspan><tspan x="85.48" y="21.52">TH R</tspan><tspan class="cls-19" x="126.39" y="21.52">A</tspan><tspan x="137.71" y="21.52">TE</tspan><tspan x="75.41" y="43.05">30%</tspan></text></g></g></svg>