<svg xmlns="http://www.w3.org/2000/svg" xmlns:xlink="http://www.w3.org/1999/xlink" viewBox="0 0 47.88 54.61"><defs><style>.cls-1{fill:url(#linear-gradient);}.cls-2{fill:#fff;}</style><linearGradient id="linear-gradient" x1="61.75" y1="93.97" x2="74.92" y2="93.97" gradientTransform="matrix(0.64, 0.77, -0.77, 0.64, 56.56, -92.03)" gradientUnits="userSpaceOnUse"><stop offset="0" stop-color="#003826"/><stop offset="1" stop-color="#0b5937"/></linearGradient></defs><title>Asset 12</title><g id="Layer_2" data-name="Layer 2"><g id="Layer_1-2" data-name="Layer 1"><path class="cls-1" d="M31.42,25.76a6.58,6.58,0,1,0-10.66-3.91l3.46-2.67a3.24,3.24,0,0,1,4.55.44l.12.14a2.55,2.55,0,0,1-.35,3.59l-4,3.32A6.58,6.58,0,0,0,31.42,25.76Z"/><path class="cls-2" d="M28.54,23.35a2.55,2.55,0,0,0,.35-3.59l-.12-.14a3.24,3.24,0,0,0-4.55-.44l-3.46,2.67-7.62,5.89c-.27.13-5.46,4.36-5.46,4.36.09-.81.2-1.71.32-2.55a9.49,9.49,0,0,0-1.36-5.82,2.67,2.67,0,0,0-1.49-1.27,4.51,4.51,0,0,0-.53-.09c-1.16-.12-2.58.24-3,1.31a3.18,3.18,0,0,0,0,1.51,8,8,0,0,1,.13,3c-.45,2-1.4,6.69-1.75,9.36.06.44,0,1.58,0,2a14,14,0,0,1,.14,3,12.16,12.16,0,0,0,.3,2,12,12,0,0,0,2.68,5.61c1.64,2,3,3.89,5.27,4.25l.06.07.12,0a8.52,8.52,0,0,0,6.67-1.8l2.53-2.09,6.56-5.4c.44-.37,1.85-1.7,1.27-3.32a2.87,2.87,0,0,0-1.45-1.6l-.09-.11,0,0a2.48,2.48,0,0,0,.2-2.8,3.35,3.35,0,0,0-2.11-1.71,2.81,2.81,0,0,0-.67-3.32,3.45,3.45,0,0,0-2.55-1l5.59-4.61Z"/><path class="cls-2" d="M28.14,39l-.29,1.94a.6.6,0,0,0,.62.69,20.82,20.82,0,0,0,14.67-34,22.1,22.1,0,0,0-1.61-1.75A20.82,20.82,0,0,0,7,15.47a.59.59,0,0,0,.56.74l2,.09a.59.59,0,0,0,.59-.44,17.73,17.73,0,1,1,18.63,22.6A.6.6,0,0,0,28.14,39Z"/><path class="cls-2" d="M29.44,30.3l-.3,2.05a.59.59,0,0,0,.73.67A12.33,12.33,0,0,0,35,30.49,12.53,12.53,0,1,0,19.1,11.15a12.3,12.3,0,0,0-3.48,4.59.6.6,0,0,0,.52.84l2.07.09a.6.6,0,0,0,.55-.32A9.44,9.44,0,1,1,29.87,29.82.6.6,0,0,0,29.44,30.3Z"/></g></g></svg>