<svg xmlns="http://www.w3.org/2000/svg" viewBox="0 0 79.27 217.64"><defs><style>.cls-1{fill:#2b2c2e;}</style></defs><title>Asset 11</title><g id="Layer_2" data-name="Layer 2"><g id="Layer_1-2" data-name="Layer 1"><path class="cls-1" d="M74,30.72a1.83,1.83,0,0,0-.25.08c-.1-.22-.2-.41-.29-.66-1.16-3.48.25-9-1.25-9.25s-2.39,8.62-2.14,12.88a10.78,10.78,0,0,0,2.15,6.35c0,.08-.06.14-.08.22-.68,3.58-1.59,8.15-2.39,12.9-2.85-8-7.24-17.38-11.91-16l-.13,0-11.14-.8h0l-.12,0h0a3.14,3.14,0,0,1-.36-.14h0c-.93-.45-2.89-2-3.63-7.27a20.06,20.06,0,0,0,1.7-2.25l.09-.14a20.34,20.34,0,0,0,1.28-2.3c.09-.18.18-.34.26-.52a20.06,20.06,0,0,0,.84-2.25c.09-.27.21-.53.29-.81a21.32,21.32,0,0,0,.63-3.22c0-.12,0-.23,0-.35l.89-1.27s.45-7-1.42-10C45.64,3.73,41,0,36,0c-4.82,0-10,3.37-11.4,6.92-1.43,3.75-.82,10-.82,10l1.32,1.44a.43.43,0,0,1,0,.05,21.24,21.24,0,0,0,.7,3.13s0,.07,0,.11a22.29,22.29,0,0,0,1.09,2.8l.09.17A20.69,20.69,0,0,0,28.37,27l.12.17a17.83,17.83,0,0,0,1.6,2l0,0c0,.28-.08.54-.13.79-.08.5-.16,1-.26,1.44,0,.19-.1.33-.15.51a14.31,14.31,0,0,1-.86,2.4c-.07.14-.13.3-.19.43a8.25,8.25,0,0,1-.45.75l-.26.4c-.14.19-.27.36-.39.5l-.26.3-.3.29c-.08.08-.16.14-.23.2l-.15.12-.14.09h0L13.82,38.62a1.32,1.32,0,0,1,0,.16C6,38.44,2,67,2,67l1,.18C1.85,73.43,1.27,78.7,1.6,79.86c0,0,0,0,0,0-3.66,5.76-.21,26.25,1.47,37.33a5.81,5.81,0,0,0,.48,1.57,9.25,9.25,0,0,0,.68,6.81c1.53,3.52,5.89,10.25,7,9.46s-1.59-4.45-2.08-7.72a12.45,12.45,0,0,1,0-3.49c.67,2,1.53,3.53,2,3.37s.45-2.28-.24-4.71a13.22,13.22,0,0,0-1.36-3.27,3.43,3.43,0,0,0-.43-1.05,6.13,6.13,0,0,0-.42-.58c1-4.8,2.4-28.1.15-36.32,1.37-3.28,3.33-7.6,5.27-12.18l2.22.39s.2-.86.51-2.23c.56,5,1.06,9.23,1.37,11.24,1,6.89-.59,24.69-.59,24.69h.54l-.54,7.53L15.86,207.7h1.2a54.53,54.53,0,0,0-5.06,4,5.83,5.83,0,0,0-2,5.14s7.42,1.83,10.55,0a75.08,75.08,0,0,1,7.61-3.66V207.7h.77l6.32-89.19,1,0,1,0,11.6,89.19h1v5.47a73.53,73.53,0,0,1,7.59,3.66c3.15,1.83,10.56,0,10.56,0a5.8,5.8,0,0,0-2-5.14,54,54,0,0,0-5.15-4.05h.67l-6.69-96.89-.54-7.41H55s-1.35-17.92-.31-24.81c.41-2.74,1.21-9.84,2-17.38,1.34,4,2.36,6.9,2.36,6.9l3-.86c3.32,6,6.54,10.83,7.57,11.53a5.37,5.37,0,0,0,3.3.8A2.93,2.93,0,0,0,75.18,79c3.87-3.14,3.61-30.85,2.69-38a4.84,4.84,0,0,0,.64-1.64,11.28,11.28,0,0,0,.75-4.24C79.34,32,77.41,30,74,30.72Z" transform="translate(0)"/></g></g></svg>