<svg xmlns="http://www.w3.org/2000/svg" viewBox="0 0 92.12 95.51"><defs><style>.cls-1{fill:#105937;}</style></defs><title>Asset 10</title><g id="Layer_2" data-name="Layer 2"><g id="Layer_1-2" data-name="Layer 1"><path class="cls-1" d="M60.65,68.7c19,0,31.47-7.44,31.47-7.44s-14.45-5.45-34-1.65c19.95-15.42,26-34.28,26-34.28S65.54,32.45,51.26,53.17C57.33,22.53,46.53,0,46.53,0s-10.74,22.32-4.7,52.9C27.57,32.39,9.19,25.33,9.19,25.33s6.1,19.13,26.38,34.6C15.23,55.52,0,61.26,0,61.26s14.42,8.55,35.82,7.32A33.25,33.25,0,0,0,26,75.35a36,36,0,0,0,20.11-6.22c0,.63.08,1.26.14,1.9a64,64,0,0,1,.83,9,28.82,28.82,0,0,1-1.32,7.37c-.58,1.87-1.48,4.27-3.16,5.35s-.12,3.5,1.45,2.49c2.09-1.35,3.23-3.66,4.09-5.92a30.75,30.75,0,0,0,1.73-8c.42-4.34-.94-8.89-1-13.28l.16-.06-.08.21a36.36,36.36,0,0,0,21.78,7.4A33.42,33.42,0,0,0,60.65,68.7Z"/></g></g></svg>