<svg xmlns="http://www.w3.org/2000/svg" xmlns:xlink="http://www.w3.org/1999/xlink" viewBox="0 0 531 96"><defs><style>.cls-1{fill:#fff;}.cls-2{fill:url(#linear-gradient);}.cls-3{fill:url(#linear-gradient-2);}.cls-4{fill:url(#linear-gradient-3);}.cls-5{fill:url(#linear-gradient-4);}</style><linearGradient id="linear-gradient" x1="230.48" y1="58.32" x2="249.45" y2="58.32" gradientUnits="userSpaceOnUse"><stop offset="0" stop-color="#003826"/><stop offset="1" stop-color="#0b5937"/></linearGradient><linearGradient id="linear-gradient-2" x1="253.98" y1="54.13" x2="272.95" y2="54.13" xlink:href="#linear-gradient"/><linearGradient id="linear-gradient-3" x1="277.6" y1="55.63" x2="290.16" y2="55.63" xlink:href="#linear-gradient"/><linearGradient id="linear-gradient-4" x1="228.93" y1="35.41" x2="299.98" y2="35.41" xlink:href="#linear-gradient"/></defs><title>Asset 10</title><g id="Layer_2" data-name="Layer 2"><g id="Layer_1-2" data-name="Layer 1"><rect class="cls-1" y="47" width="190" height="6" rx="3"/><rect class="cls-1" x="341" y="47" width="190" height="6" rx="3"/><circle class="cls-1" cx="264.56" cy="48" r="48"/><path class="cls-2" d="M247.19,43.1,231,56.18a1.41,1.41,0,0,0-.52,1.09V72.45a1.39,1.39,0,0,0,1.39,1.39h16.19a1.39,1.39,0,0,0,1.39-1.39V44.18a1.39,1.39,0,0,0-.79-1.25A1.36,1.36,0,0,0,247.19,43.1Zm-.52,27.95H233.26V57.94L246.67,47.1Z"/><path class="cls-3" d="M258.81,34.63l-4.17,2.61a1.41,1.41,0,0,0-.66,1.19v34a1.39,1.39,0,0,0,1.39,1.39h16.19A1.39,1.39,0,0,0,273,72.45V48.37a1.38,1.38,0,0,0-.39-1l-12-12.57A1.39,1.39,0,0,0,258.81,34.63Zm11.36,36.42H256.76V39.2l2.57-1.61,10.84,11.34Z"/><path class="cls-4" d="M288.5,37.7,277.89,48.33a.94.94,0,0,0-.29.69V72.87a1,1,0,0,0,1,1h10.61a1,1,0,0,0,1-1V38.39a1,1,0,0,0-.6-.91A1,1,0,0,0,288.5,37.7Zm-.29,34.19h-8.66V49.43l8.66-8.69Z"/><path class="cls-5" d="M297.62,22.34l-23,16.92q-6.68-7-13.36-14a1.65,1.65,0,0,0-2-.26L229.66,45.67c-1.72,1.19-.09,4,1.65,2.83l28.62-20,13.38,14.05a1.65,1.65,0,0,0,2,.25l24-17.67C301,23.93,299.32,21.09,297.62,22.34Z"/></g></g></svg>