<svg xmlns="http://www.w3.org/2000/svg" xmlns:xlink="http://www.w3.org/1999/xlink" viewBox="0 0 137 137"><defs><style>.cls-1{fill:#fff;}.cls-2{fill:url(#linear-gradient);}.cls-3{fill:url(#linear-gradient-2);}.cls-4{fill:url(#linear-gradient-3);}.cls-5{fill:url(#linear-gradient-4);}</style><linearGradient id="linear-gradient" x1="19.87" y1="83.22" x2="46.94" y2="83.22" gradientUnits="userSpaceOnUse"><stop offset="0" stop-color="#003826"/><stop offset="1" stop-color="#0b5937"/></linearGradient><linearGradient id="linear-gradient-2" x1="53.41" y1="77.25" x2="80.48" y2="77.25" xlink:href="#linear-gradient"/><linearGradient id="linear-gradient-3" x1="87.12" y1="79.38" x2="105.04" y2="79.38" xlink:href="#linear-gradient"/><linearGradient id="linear-gradient-4" x1="17.66" y1="50.53" x2="119.05" y2="50.53" xlink:href="#linear-gradient"/></defs><title>Asset 11</title><g id="Layer_2" data-name="Layer 2"><g id="Layer_1-2" data-name="Layer 1"><circle class="cls-1" cx="68.5" cy="68.5" r="68.5"/><path class="cls-2" d="M43.71,61.5,20.61,80.18a2,2,0,0,0-.74,1.55v21.66a2,2,0,0,0,2,2H45a2,2,0,0,0,2-2V63.05a2,2,0,0,0-3.23-1.55ZM43,101.4H23.84V82.68L43,67.21Z"/><path class="cls-3" d="M60.3,49.42l-6,3.73a2,2,0,0,0-.93,1.69v48.55a2,2,0,0,0,2,2h23.1a2,2,0,0,0,2-2V69a2,2,0,0,0-.56-1.38L62.79,49.73A2,2,0,0,0,60.3,49.42Zm16.21,52H57.38V55.94L61,53.64,76.51,69.83Z"/><path class="cls-4" d="M102.67,53.8,87.52,69a1.4,1.4,0,0,0-.4,1v34a1.39,1.39,0,0,0,1.39,1.39h15.14A1.39,1.39,0,0,0,105,104V54.78a1.41,1.41,0,0,0-.86-1.29A1.39,1.39,0,0,0,102.67,53.8Zm-.41,48.79H89.9v-32l12.36-12.4Z"/><path class="cls-5" d="M115.69,31.88,82.92,56,63.86,36A2.35,2.35,0,0,0,61,35.65L18.7,65.17c-2.45,1.71-.12,5.76,2.35,4L61.89,40.73q9.56,10,19.1,20.05a2.34,2.34,0,0,0,2.83.36L118,35.92C120.44,34.15,118.11,30.09,115.69,31.88Z"/></g></g></svg>